<?xml version="1.0" encoding="utf-8"?>
<!-- Generator: Adobe Illustrator 22.0.1, SVG Export Plug-In . SVG Version: 6.00 Build 0)  -->
<svg version="1.1" id="圖層_1" xmlns="http://www.w3.org/2000/svg" xmlns:xlink="http://www.w3.org/1999/xlink" x="0px" y="0px"
	 viewBox="0 0 183.9 99.7" style="enable-background:new 0 0 183.9 99.7;" xml:space="preserve">
<style type="text/css">
	.st0{opacity:1;fill:none;stroke:#00a7be;stroke-width:6;stroke-miterlimit:10;stroke-dasharray: 3000;
  stroke-dashoffset: 3000;
  animation: dash 8s ease-in-out infinite;}
  @keyframes dash {
  to {
    stroke-dashoffset: 0;
  }
</style>
<g id="stroke" clip-path="url(#clip1)" stroke-width="30">
<path class="st0" d="M22.4,27.6v23h9.5v-24h10.5v10c0,0,6.3,0.6,5.5,4.5c-1,5,2,10-4,10s-6,0-6-7c0-5-1-7,3-7c2,0,2-2,8-7
	s-2.5,8.5,1.5,8.5s2.1,1.3,3,1c3-1,2.5-2.5,5.5-2.5s4,0,4,0s2.6-1.3,3.5,1.5c1,3,0,14,0,14s0.6-8.5-2-10c-2.5-1.5-8,1-8,5s6,5,6,5
	s4-1,4-4s11-31,15.5-26.5s3.5,30.5,3.5,30.5s1.5-15.5-1.5-15.5s-9-1-9,4s-1,9,2,9s5,2,7-5s4.3-6.5,7.5-6.5c3,0,3,0,3,0l-0.5,15.5h4
	V38.6h5l-0.5,14c0,0-1-13,1-15s5.5-1.5,7.5-0.5s1,17,1,17s-3-23,6-22s13,0,13,0v5c0,0-7-1-8,1s-4,13,3,13c7,0,5-12,5-12s4,21-5,19
	s-18-29-18-29s-12-2-13,1s-3,0-2,2s3,2,2,0c0,0,18.5-29.5,38.5-14.5s10,26,10,26s-8,7,0,6s33,0,33,0v14h-165v8h154v3h-154v4h154v4
	h-154v4h154"/>
</g>

<g>
<clipPath id="clip1">
	<path d="M20,52V31.2h4.6v18.5h6.9V52H20z"/>
	<path d="M40.7,35.9h4.6c1.3,0,2.3,0.5,3.2,1.4c0.9,0.9,1.4,2,1.4,3.2v6.9c0,1.3-0.5,2.3-1.4,3.3c-0.9,0.9-2,1.4-3.2,1.4h-4.6
		c-1.3,0-2.3-0.5-3.3-1.4c-0.9-0.9-1.4-2-1.4-3.3v-6.9c0-1.3,0.5-2.3,1.4-3.2C38.4,36.3,39.5,35.9,40.7,35.9z M40.7,40.5v6.9
		c0,0.6,0.2,1.2,0.7,1.6s1,0.7,1.6,0.7c0.6,0,1.2-0.2,1.6-0.7s0.7-1,0.7-1.6v-6.9c0-0.6-0.2-1.2-0.7-1.6s-1-0.7-1.6-0.7
		c-0.6,0-1.2,0.2-1.6,0.7S40.7,39.8,40.7,40.5z"/>
	<path d="M63.8,42.8v-2.3c0-0.6-0.2-1.2-0.7-1.6s-1-0.7-1.6-0.7h-2.3c-1.4,0-2.1,0.8-2.3,2.3h-2.3c0.4-3.1,1.9-4.6,4.6-4.6h4.6
		c1.3,0,2.3,0.5,3.2,1.4c0.9,0.9,1.4,2,1.4,3.2V52h-4.6v-2.3c-0.2,1.5-1,2.3-2.3,2.3h-2.3c-1.3,0-2.3-0.5-3.3-1.4
		c-0.9-0.9-1.4-2-1.4-3.3c0-1.3,0.5-2.3,1.4-3.2c0.9-0.9,2-1.4,3.3-1.4H63.8z M63.8,45.1h-2.3c-0.6,0-1.2,0.2-1.6,0.7
		s-0.7,1-0.7,1.6c0,0.6,0.2,1.2,0.7,1.6s1,0.7,1.6,0.7c0.6,0,1.2-0.2,1.6-0.7s0.7-1,0.7-1.6V45.1z"/>
	<path d="M86.9,52h-4.6v-2.3c-0.2,1.5-1,2.3-2.3,2.3h-2.3c-1.3,0-2.3-0.5-3.3-1.4c-0.9-0.9-1.4-2-1.4-3.3v-6.9
		c0-1.3,0.5-2.3,1.4-3.2c0.9-0.9,2-1.4,3.3-1.4h4.6v-4.6h4.6V52z M82.3,38.2H80c-0.6,0-1.2,0.2-1.6,0.7s-0.7,1-0.7,1.6v6.9
		c0,0.6,0.2,1.2,0.7,1.6s1,0.7,1.6,0.7c0.6,0,1.2-0.2,1.6-0.7s0.7-1,0.7-1.6V38.2z"/>
	<path d="M91.5,33.5v-2.3h4.6v2.3H91.5z M91.5,52V35.9h4.6V52H91.5z"/>
	<path d="M100.7,52V35.9h4.6v2.3c0.1-0.8,0.3-1.4,0.7-1.7s0.9-0.6,1.6-0.6h2.3c1.3,0,2.3,0.5,3.2,1.4c0.9,0.9,1.4,2,1.4,3.2V52H110
		V40.5c0-0.6-0.2-1.2-0.7-1.6s-1-0.7-1.6-0.7c-0.6,0-1.2,0.2-1.6,0.7s-0.7,1-0.7,1.6V52H100.7z"/>
	<path d="M133,35.9v18.4c0,1.3-0.5,2.3-1.4,3.3c-0.9,0.9-2,1.4-3.2,1.4h-4.6c-2.7,0-4.3-1.5-4.6-4.6h2.3c0.1,1.6,0.9,2.3,2.3,2.3
		h2.3c0.6,0,1.2-0.2,1.6-0.7c0.5-0.5,0.7-1,0.7-1.6v-4.6c-0.2,1.5-1,2.3-2.3,2.3h-2.3c-1.3,0-2.3-0.5-3.3-1.4
		c-0.9-0.9-1.4-2-1.4-3.3v-6.9c0-1.3,0.5-2.3,1.4-3.2c0.9-0.9,2-1.4,3.3-1.4H133z M128.4,38.2h-2.3c-0.6,0-1.2,0.2-1.6,0.7
		s-0.7,1-0.7,1.6v6.9c0,0.6,0.2,1.2,0.7,1.6s1,0.7,1.6,0.7c0.6,0,1.2-0.2,1.6-0.7c0.5-0.5,0.7-1,0.7-1.6V38.2z"/>

		<path d="M19.6,86.9V69.8h7.6c1,0,1.9,0.4,2.7,1.1c0.7,0.8,1.1,1.6,1.1,2.7v1.9c0,1-0.4,1.9-1.1,2.7c-0.7,0.8-1.6,1.1-2.7,1.1h-3.8
			v7.6H19.6z M23.4,77.4h1.9c0.5,0,1-0.2,1.4-0.6c0.4-0.4,0.6-0.8,0.6-1.3v-1.9c0-0.5-0.2-1-0.6-1.4c-0.4-0.4-0.8-0.6-1.4-0.6h-1.9
			V77.4z"/>
		<path d="M34.8,86.9V69.8h3.8v17.1H34.8z"/>
		<path d="M53.8,81.2h-7.6v1.9c0,0.5,0.2,1,0.6,1.3c0.4,0.4,0.8,0.6,1.3,0.6h1.9c1.3,0,1.9-0.6,1.9-1.9h1.9
			c-0.3,2.5-1.6,3.8-3.8,3.8h-3.8c-1,0-1.9-0.4-2.7-1.1c-0.8-0.7-1.1-1.6-1.1-2.7v-5.7c0-1,0.4-1.9,1.1-2.7c0.8-0.7,1.6-1.1,2.7-1.1
			h3.8c1,0,1.9,0.4,2.7,1.1s1.1,1.6,1.1,2.7V81.2z M46.2,79.3h3.8v-1.9c0-0.5-0.2-1-0.6-1.3c-0.4-0.4-0.8-0.6-1.4-0.6
			c-0.5,0-1,0.2-1.3,0.6c-0.4,0.4-0.6,0.8-0.6,1.3V79.3z"/>
		<path d="M65.3,79.3v-1.9c0-0.5-0.2-1-0.6-1.3c-0.4-0.4-0.8-0.6-1.4-0.6h-1.9c-1.1,0-1.8,0.6-1.9,1.9h-1.9c0.3-2.5,1.6-3.8,3.8-3.8
			h3.8c1,0,1.9,0.4,2.7,1.1s1.1,1.6,1.1,2.7v9.5h-3.8V85c-0.2,1.3-0.8,1.9-1.9,1.9h-1.9c-1,0-1.9-0.4-2.7-1.1
			c-0.8-0.7-1.1-1.6-1.1-2.7c0-1,0.4-1.9,1.1-2.7c0.8-0.7,1.6-1.1,2.7-1.1H65.3z M65.3,81.2h-1.9c-0.5,0-1,0.2-1.3,0.6
			c-0.4,0.4-0.6,0.8-0.6,1.3c0,0.5,0.2,1,0.6,1.3c0.4,0.4,0.8,0.6,1.3,0.6c0.5,0,1-0.2,1.4-0.6c0.4-0.4,0.6-0.8,0.6-1.3V81.2z"/>
		<path d="M82.4,77.4h-1.9c-0.2-1.3-0.8-1.9-1.8-1.9c-0.7,0-1.2,0.1-1.5,0.4s-0.5,0.7-0.5,1.2c0,0.5,0.9,1.3,2.8,2.3
			c1.5,0.8,2.4,1.5,2.6,2c0.2,0.5,0.3,1.1,0.3,1.7c0,1.1-0.4,1.9-1.1,2.7s-1.6,1.1-2.7,1.1h-1.9c-2.5,0-3.8-1.3-3.8-3.8h1.9
			c0.2,1.3,0.7,1.9,1.8,1.9c0.7,0,1.2-0.1,1.5-0.4c0.3-0.3,0.5-0.7,0.5-1.2c0-0.5-0.9-1.3-2.8-2.3c-1.5-0.8-2.4-1.5-2.6-2
			c-0.2-0.5-0.4-1.1-0.4-1.7c0-1.1,0.4-1.9,1.1-2.7c0.8-0.7,1.6-1.1,2.7-1.1h1.9C81,73.6,82.3,74.9,82.4,77.4z"/>
		<path d="M97.6,81.2H90v1.9c0,0.5,0.2,1,0.6,1.3c0.4,0.4,0.8,0.6,1.3,0.6h1.9c1.3,0,1.9-0.6,1.9-1.9h1.9c-0.3,2.5-1.6,3.8-3.8,3.8
			H90c-1,0-1.9-0.4-2.7-1.1c-0.8-0.7-1.1-1.6-1.1-2.7v-5.7c0-1,0.4-1.9,1.1-2.7c0.8-0.7,1.6-1.1,2.7-1.1h3.8c1,0,1.9,0.4,2.7,1.1
			s1.1,1.6,1.1,2.7V81.2z M90,79.3h3.8v-1.9c0-0.5-0.2-1-0.6-1.3c-0.4-0.4-0.8-0.6-1.4-0.6c-0.5,0-1,0.2-1.3,0.6
			c-0.4,0.4-0.6,0.8-0.6,1.3V79.3z"/>
		<path d="M107.2,73.6h3.8V85h1.9c0.5,0,1-0.2,1.4-0.6c0.4-0.4,0.6-0.8,0.6-1.3v-9.5h3.8V85h1.9c0.5,0,1-0.2,1.3-0.6
			c0.4-0.4,0.6-0.8,0.6-1.3v-9.5h3.8v6.8c0,1.8-0.6,3.3-1.9,4.6c-1.3,1.3-2.8,1.9-4.6,1.9h-4.9v-0.6c-0.7,0.4-1.6,0.6-2.7,0.6h-4.9
			V73.6z"/>
		<path d="M137.6,79.3v-1.9c0-0.5-0.2-1-0.6-1.3c-0.4-0.4-0.8-0.6-1.4-0.6h-1.9c-1.1,0-1.8,0.6-1.9,1.9H130c0.3-2.5,1.6-3.8,3.8-3.8
			h3.8c1,0,1.9,0.4,2.7,1.1s1.1,1.6,1.1,2.7v9.5h-3.8V85c-0.2,1.3-0.8,1.9-1.9,1.9h-1.9c-1,0-1.9-0.4-2.7-1.1
			c-0.8-0.7-1.1-1.6-1.1-2.7c0-1,0.4-1.9,1.1-2.7c0.8-0.7,1.6-1.1,2.7-1.1H137.6z M137.6,81.2h-1.9c-0.5,0-1,0.2-1.3,0.6
			c-0.4,0.4-0.6,0.8-0.6,1.3c0,0.5,0.2,1,0.6,1.3c0.4,0.4,0.8,0.6,1.3,0.6c0.5,0,1-0.2,1.4-0.6c0.4-0.4,0.6-0.8,0.6-1.3V81.2z"/>
		<path d="M145.2,71.7v-1.9h3.8v1.9H145.2z M145.2,86.9V73.6h3.8v13.3H145.2z"/>
		<path d="M154.7,69.8h3.8v3.8h1.9v1.9h-1.9v7.6c0,0.6,0.2,1.1,0.6,1.4c0.4,0.3,0.8,0.5,1.1,0.5h0.2v1.9h-1.9c-1,0-1.9-0.4-2.7-1.1
			c-0.7-0.7-1.1-1.6-1.1-2.7v-7.6h-1.9v-1.9h1.9V69.8z"/>
<rect x="142.4" y="46.6" width="5" height="5"/>
<rect x="149.9" y="46.6" width="5" height="5"/>
<rect x="157.4" y="46.6" width="5" height="5"/>
</clipPath>
</g>

</svg>
