<?xml version="1.0" encoding="utf-8"?>
<!-- Generator: Adobe Illustrator 22.0.1, SVG Export Plug-In . SVG Version: 6.00 Build 0)  -->
<svg version="1.1" id="圖層_1" xmlns="http://www.w3.org/2000/svg" xmlns:xlink="http://www.w3.org/1999/xlink" x="0px" y="0px"
	 viewBox="0 0 738.6 965.9" style="enable-background:new 0 0 738.6 965.9;" xml:space="preserve">
<style type="text/css">
	.st0{fill:#808391;}
	.st1{fill:#CBD5CE;stroke:#000000;stroke-miterlimit:10;}
	.st2{fill:#E5A481;}
	.st3{fill:#312E34;}
	.st4{fill:#935A33;stroke:#060001;stroke-miterlimit:10;}
	.st5{fill:#EDEDED;stroke:#000000;stroke-miterlimit:10;}
	.st6{fill:#C78B68;stroke:#040000;stroke-miterlimit:10;}
	.st7{fill:none;stroke:#000000;stroke-miterlimit:10;}
	.st8{fill:#EDEDED;}
	.st9{fill:#6D3B31;stroke:#000000;stroke-miterlimit:10;}
	.st10{fill:#8A625A;stroke:#000000;stroke-miterlimit:10;}
	.st11{fill:#CBD5CE;}
	.st12{fill:#6D3B31;stroke:#000000;stroke-width:3;stroke-miterlimit:10;}
	.st13{fill:#C0ADA3;stroke:#000000;stroke-width:3;stroke-miterlimit:10;}
	.st14{fill:#9C4935;stroke:#000000;stroke-miterlimit:10;}
	.st15{fill:#D7C689;stroke:#000000;stroke-miterlimit:10;}
	.st16{font-family:'LiHeiPro';}
	.st17{font-size:45.1259px;}
	.st18{fill:url(#SVGID_1_);}
	
</style>
<g id="bQUwTq_1_">
	<g>
		<path class="st0" d="M327.8,513.5c0,0,40.2-36.3,75.1-35.2c0,0,4.9,2.2,11.9,5.2l202,30c0,0,8,2,14,17h38l24,17l32,123l-10,65
			l-33,33l-501-3l14-140c0,0-1-6,15-13s49-17,49-17L327.8,513.5z"/>
		<path d="M327.7,513.4c5.3-4.7,10.9-9,16.7-13c5.8-4,11.8-7.7,18.1-11c6.2-3.3,12.7-6.2,19.5-8.3c6.8-2.1,13.8-3.4,20.9-3.2l0.1,0
			l0.1,0l11.9,5.1l-0.1,0L516,497.1l50.5,7.2l50.5,7.4l0.1,0l0.1,0c0.4,0.1,0.6,0.2,0.9,0.3c0.3,0.1,0.5,0.2,0.8,0.3
			c0.5,0.2,0.9,0.5,1.4,0.8c0.9,0.6,1.7,1.2,2.5,1.9c1.5,1.3,2.9,2.9,4.1,4.5c1.2,1.6,2.2,3.3,3.2,5l1.3,2.6l1.2,2.7l-1.6-1.1
			l38,0.1l0.5,0l0.4,0.3l23.9,17.1l0.5,0.3l0.1,0.5l15.6,61.6l7.8,30.8l3.9,15.4l4,15.4l0,0.2l0,0.2l-10.1,65l0,0.2l-0.1,0.1
			L682.3,769l-0.2,0.2l-0.3,0l-31.3-0.1l-31.3,0l-62.6,0c-41.8,0-83.5-0.1-125.3-0.2l-125.3-0.5c-41.8-0.2-83.5-0.4-125.2-0.8
			l-2.3,0l0.2-2.2l3.6-35l3.7-35l3.7-35l3.8-35l0,0.3c-0.1-0.5,0-0.6,0-0.9c0-0.2,0.1-0.5,0.1-0.7c0.1-0.5,0.3-0.9,0.5-1.3
			c0.4-0.8,0.8-1.5,1.4-2.2c1-1.3,2.2-2.4,3.5-3.3c2.5-1.9,5.2-3.4,8-4.7c5.6-2.6,11.3-4.6,17-6.6c11.4-4,23-7.6,34.6-11.1l-0.3,0.2
			l17.4-20.4l17.4-20.4L327.7,513.4z M328,513.6l-34.4,41.1l-17.1,20.6l-17.1,20.6l-0.1,0.2l-0.2,0.1c-11.5,3.6-23,7.5-34.3,11.6
			c-5.6,2.1-11.3,4.3-16.7,6.8c-2.7,1.3-5.2,2.8-7.5,4.6c-1.1,0.9-2.2,1.9-3,3c-0.4,0.5-0.8,1.1-1,1.7c-0.1,0.3-0.2,0.6-0.3,0.8
			c0,0.1,0,0.3-0.1,0.4c0,0.1,0,0.3,0,0.2l0,0.3l-3.2,35l-3.3,35l-3.3,35l-3.4,35l-2-2.3c41.8,0.1,83.5,0.4,125.3,0.7l125.2,1
			c41.7,0.4,83.5,0.8,125.2,1.3l62.6,0.7l31.3,0.3l31.3,0.3l-0.5,0.2l33.1-32.9l-0.2,0.3l9.9-65l0,0.3l-4-15.4L716,640l-8.2-30.7
			l-16.4-61.4l0.6,0.8l-24.1-16.9l1,0.3l-38,0.1l-1.2,0l-0.5-1.1l-1.1-2.5l-1.2-2.4c-0.9-1.6-1.8-3.1-2.9-4.5
			c-1.1-1.4-2.2-2.8-3.5-3.9c-0.7-0.6-1.3-1.1-2-1.5c-0.4-0.2-0.7-0.4-1.1-0.6c-0.2-0.1-0.4-0.2-0.5-0.2c-0.2-0.1-0.4-0.1-0.4-0.2
			l0.2,0l-50.5-7.6l-50.5-7.8l-100.9-15.8l-0.1,0l-0.1,0l-11.9-5.3l0.2,0c-7-0.2-14,1-20.7,3c-6.7,2-13.2,4.8-19.5,8
			c-6.3,3.2-12.3,7-18.1,10.9C338.9,504.7,333.2,509,328,513.6z"/>
	</g>
	<path class="st1" d="M328.8,514c0,0,40.2-36.3,75.1-35.2c0,0,4.9,2.2,11.9,5.2l-1,54c0,0-34,2-46,20l-13,28l-98,59l25,40l-10,82.5
		l-51,1l28-73.5l-17-25l27-74L328.8,514z"/>
	<g>
		<path class="st2" d="M398.3,473c-2.7-5.2-24-64-24-64s-7.5-43.5,0.5-64.5s-4-59-4-59s-2-23,4-31c0,0,17-39,43-51s99-29,156,44
			s44,113,33,131s-48,30-41,91v8l-56,6c0,0-52,23-51,32s-5,56-5,56s-34,12-48,5s-22-11-24-26c0,0,3-11,32-15c0,0,5-26,2-45l-1-7
			C414.8,483.5,402.8,481.5,398.3,473z"/>
		<path d="M398.1,473.1c-1.2-2.6-2.2-5.3-3.3-7.9l-3-8l-6-16l-11.7-32.1l0,0l0,0c-1.6-10.3-2.8-20.7-3.2-31.1
			c-0.2-5.2-0.2-10.4,0.1-15.7l0.3-3.9l0.5-3.9c0.1-1.3,0.5-2.6,0.7-3.9l0.4-1.9c0.2-0.6,0.4-1.3,0.6-1.9c3.8-9.7,3.8-20.3,2.8-30.6
			c-1.1-10.3-3.3-20.5-6.3-30.4l0-0.1l0-0.1c-0.2-2.7-0.3-5.3-0.4-8c0-2.7,0-5.3,0.2-8c0.2-2.7,0.5-5.3,1.1-8
			c0.6-2.6,1.4-5.3,3.1-7.7l-0.1,0.2c2.1-4.7,4.5-9.3,7.1-13.8c2.6-4.5,5.4-8.8,8.5-13c6.1-8.3,13.2-16.1,22-21.8
			c1.1-0.7,2.3-1.3,3.4-2c1.2-0.6,2.4-1.2,3.5-1.7c2.4-1.1,4.8-2,7.2-2.9c4.9-1.8,9.9-3.2,14.9-4.3c5.1-1.1,10.2-2,15.3-2.5
			c2.6-0.3,5.2-0.4,7.7-0.6c2.6-0.1,5.2-0.2,7.8-0.1c2.6,0,5.2,0.2,7.8,0.3c2.6,0.3,5.2,0.4,7.7,0.8c5.1,0.7,10.2,1.7,15.2,3.1
			c10,2.7,19.7,6.6,28.7,11.8c9,5.1,17.4,11.3,25.1,18.3c7.7,7,14.6,14.7,20.9,22.9c12.6,16.3,24,33.7,32.1,52.8
			c2,4.8,3.8,9.7,5.3,14.7c1.5,5,2.6,10.1,3.4,15.3c1.5,10.3,1.3,21.1-1.5,31.3c-0.7,2.6-1.5,5.1-2.5,7.5c-1,2.5-2.1,4.9-3.4,7.2
			c-1.2,2.3-2.8,4.7-4.5,6.7c-1.7,2.1-3.6,4-5.4,5.8c-3.7,3.6-7.5,7-11,10.6c-3.5,3.6-6.8,7.4-9.6,11.5c-2.8,4.1-5.1,8.5-6.9,13.1
			c-1.8,4.6-3.1,9.4-3.9,14.3c-0.8,4.9-1.2,9.9-1.2,14.9c0,5,0.4,10,0.9,15l0,0.2l0,0.1l0,8l0,2.3l-2.3,0.2l-28,3l-28,3l0.8-0.2
			c-8.9,4-17.7,8.2-26.2,12.8c-4.3,2.3-8.5,4.7-12.6,7.2c-2,1.3-4,2.6-5.9,4c-0.9,0.7-1.8,1.4-2.6,2.2c-0.8,0.8-1.5,1.6-2,2.3
			c-0.2,0.3-0.3,0.7-0.4,0.8c0,0,0,0.1,0,0c0,0,0,0,0,0l0,0.3l0.1,1l0,1l0,1l0,1.9l-0.2,3.7l-0.3,3.7c-0.4,4.9-0.9,9.8-1.4,14.7
			c-1.1,9.8-2.3,19.5-3.6,29.2l-0.2,1.3l-1.1,0.4c-7,2.3-14,4.1-21.2,5.4c-3.6,0.6-7.2,1.1-10.9,1.4c-3.7,0.2-7.4,0.2-11.2-0.4
			c-1.9-0.3-3.7-0.8-5.5-1.7c-1.7-0.8-3.2-1.6-4.9-2.5c-3.2-1.7-6.4-3.5-9.4-5.7c-1.5-1.1-2.9-2.4-4.2-3.8c-1.2-1.4-2.4-3-3.2-4.7
			c-1.8-3.4-2.7-7.1-3.1-10.7l0-0.2l0.1-0.2c0.3-1,0.8-1.6,1.3-2.3c0.5-0.7,1-1.3,1.6-1.9c0.6-0.5,1.2-1.1,1.8-1.6l0.9-0.7l1-0.7
			c2.6-1.7,5.5-3.1,8.4-4.1c1.5-0.5,2.9-1,4.4-1.4c1.5-0.4,3-0.8,4.5-1.1c1.5-0.3,3-0.6,4.5-0.9l4.6-0.7l-0.5,0.5
			c0.8-4.3,1.4-8.6,2-12.9c0.5-4.3,0.9-8.6,1.1-13c0.2-4.3,0.2-8.7-0.1-13c-0.3-4.3-1-8.6-1.6-12.9l0.3,0.3
			c-1.7-0.3-3.3-0.8-4.9-1.4c-1.6-0.6-3.1-1.3-4.6-2.2c-1.5-0.9-2.8-1.9-4.1-3.1C400,476,398.9,474.6,398.1,473.1z M398.5,472.9
			c0.8,1.4,1.8,2.8,3,3.9c1.2,1.1,2.6,2.1,4,3c1.4,0.8,3,1.5,4.5,2.1c1.6,0.6,3.2,1,4.8,1.3l0.2,0l0,0.2c0.6,4.3,1.4,8.6,1.7,13
			c0.3,4.4,0.4,8.7,0.3,13.1c-0.1,4.4-0.5,8.7-0.9,13.1c-0.5,4.3-1,8.7-1.8,13l-0.1,0.4l-0.5,0.1l-4.5,0.8c-1.5,0.3-3,0.6-4.4,1
			c-1.5,0.3-2.9,0.8-4.4,1.2c-1.4,0.5-2.9,0.9-4.3,1.5c-2.8,1.1-5.5,2.4-7.9,4.1l-0.9,0.6l-0.8,0.7c-0.6,0.4-1.1,1-1.6,1.5
			c-0.5,0.5-1,1.1-1.3,1.6c-0.2,0.3-0.4,0.6-0.5,0.9c-0.1,0.3-0.3,0.6-0.4,0.8l0-0.4c0.5,3.5,1.4,6.9,3.1,9.9c0.8,1.5,1.9,2.9,3,4.1
			c1.2,1.2,2.5,2.4,3.9,3.4c2.8,2,6,3.7,9.2,5.3c1.6,0.8,3.3,1.6,4.8,2.3c1.5,0.7,3.1,1.1,4.8,1.3c3.4,0.5,6.9,0.5,10.4,0.2
			c3.5-0.3,7-0.9,10.5-1.6c7-1.4,13.9-3.4,20.6-5.7l-1.3,1.6c1.1-9.7,2.2-19.4,3.1-29.2c0.5-4.9,0.9-9.7,1.2-14.6l0.2-3.6l0.1-3.6
			l0-1.8l0-0.9l0-0.8l0-0.8l0-0.6c0-0.3,0-0.6,0.1-0.9c0.2-1.1,0.6-1.9,1-2.6c0.8-1.3,1.8-2.4,2.8-3.3c1-0.9,2-1.8,3-2.6
			c2-1.6,4.1-3,6.2-4.4c4.2-2.7,8.5-5.1,12.9-7.5c8.7-4.7,17.5-9,26.6-13l0.4-0.2l0.4,0l28-3l28-3l-2.3,2.5l0-8l0,0.3
			c-0.5-5.2-0.9-10.4-0.8-15.6c0.1-5.2,0.5-10.5,1.4-15.7c0.9-5.2,2.3-10.3,4.3-15.3c2-4.9,4.5-9.6,7.5-14c3-4.3,6.5-8.3,10.2-12
			c3.7-3.7,7.5-7.2,11.2-10.7c1.8-1.7,3.6-3.5,5.1-5.4c1.6-1.9,2.9-3.8,4.1-6c1.2-2.2,2.3-4.4,3.2-6.7c0.9-2.3,1.8-4.6,2.4-7
			c2.7-9.5,3-19.7,1.6-29.6c-0.7-5-1.8-9.9-3.1-14.7c-1.4-4.8-3.1-9.6-5-14.3c-7.8-18.7-19-36-31.3-52.1
			c-6.2-8.1-12.9-15.7-20.4-22.6c-7.5-6.9-15.6-12.9-24.4-18c-8.8-5.1-18.2-8.9-27.9-11.6c-4.9-1.3-9.8-2.4-14.9-3.1
			c-2.5-0.4-5-0.6-7.5-0.9c-2.5-0.1-5.1-0.3-7.6-0.3c-2.5-0.1-5.1,0-7.6,0.1c-2.5,0.2-5.1,0.3-7.6,0.6c-5,0.5-10.1,1.3-15,2.4
			c-5,1.1-9.8,2.5-14.6,4.1c-2.4,0.9-4.8,1.8-7.1,2.8c-1.2,0.5-2.3,1.1-3.4,1.6c-1.1,0.6-2.2,1.2-3.2,1.9c-4.2,2.7-8.1,6-11.7,9.5
			c-3.6,3.6-6.8,7.5-9.9,11.5c-6,8.1-11.3,17-15.6,26.2l-0.1,0.1l-0.1,0.1c-1.4,1.9-2.2,4.4-2.8,6.9c-0.6,2.5-0.9,5.1-1.1,7.7
			c-0.2,2.6-0.3,5.2-0.3,7.8c0,2.6,0.1,5.3,0.3,7.9l0-0.2c2.9,10.1,5,20.4,6,30.8c0.5,5.2,0.7,10.5,0.3,15.7
			c-0.2,2.6-0.6,5.2-1.1,7.8c-0.5,2.6-1.6,5.1-2.3,7.5c-0.2,0.6-0.4,1.2-0.6,1.8l-0.4,1.9c-0.3,1.3-0.6,2.5-0.7,3.8l-0.6,3.8
			l-0.3,3.9c-0.4,5.2-0.5,10.4-0.3,15.6c0.3,10.4,1.3,20.8,3,31.1l0,0l11.7,32.1l6,16l3,8C396.4,467.6,397.3,470.3,398.5,472.9z"/>
	</g>
	<g>
		<path class="st3" d="M558.8,456.5c0,0,13-39-9-56c0,0,17,15,34,0s25-40,25-40s2-21-8-33s-19-19-34-6s-11,21-11,21l-6,4v-45
			c0,0-32-36-34-58c0,0-7,16,6,40c0,0-28-6-38-45c0,0-8,10,6,32c0,0-27-11-26-51c0,0-60-14-54,35c0,0-11-9-7-28c0,0-19,12-11,34
			c0,0-8.2-3.6-12-9.3c-1.8-2.8-2.7-6.1-1-9.7c0,0-14,26-13,40c0,0-11,4-9,10s-9-14,3-35c0,0-14-4-24,22c0,0,1-30,15-45
			c0,0-20-3-23,10c0,0,9-22,21-21c0,0,2-17-14-7c0,0,10-41,114-51s134,54,143,63c0,0,41,19,41,67s6,54-6,69s-27,34-14,48
			c0,0-21,5-19-8c0,0-3,33-19,43c0,0,1-24-3-18S571.8,451.5,558.8,456.5z"/>
		<path d="M558.7,456.7c0-0.1-0.1-0.3,0-0.4l0-0.1l0.1-0.2l0.1-0.4l0.3-0.9l0.5-1.8c0.3-1.2,0.6-2.4,0.8-3.7
			c0.5-2.4,0.9-4.9,1.2-7.4c0.6-5,0.8-10,0.4-14.9c-0.4-5-1.5-9.9-3.5-14.4c-1-2.3-2.3-4.4-3.8-6.4c-1.5-1.9-3.3-3.7-5.2-5.2
			l0.5-0.6c2.7,2.2,5.8,3.9,9.1,5.1c3.3,1.2,6.8,1.7,10.3,1.4c3.5-0.3,6.8-1.5,9.8-3.3c1.5-0.9,2.9-2,4.2-3.1l1.9-1.8
			c0.6-0.6,1.3-1.2,1.9-1.9c4.8-5.1,8.9-10.9,12.4-17c1.8-3.1,3.3-6.2,4.8-9.4c1.4-3.2,2.8-6.5,3.9-9.8l0,0.1
			c0.3-4.1,0.2-8.3-0.3-12.4c-0.5-4.1-1.4-8.2-2.9-12c-0.7-1.9-1.7-3.7-2.8-5.5c-0.5-0.9-1.2-1.6-1.8-2.5c-0.6-0.8-1.3-1.6-2-2.4
			c-2.7-3.1-5.7-6.1-9.1-8.2c-1.8-1-3.6-1.8-5.6-2.1c-0.5-0.1-1-0.1-1.5-0.1c-0.2,0-0.5,0-0.7,0l-0.7,0.1c-0.5,0.1-1,0.1-1.5,0.2
			l-1.5,0.4c-0.5,0.1-1,0.3-1.4,0.5l-1.4,0.6c-0.9,0.5-1.8,0.9-2.7,1.5c-0.8,0.6-1.7,1.1-2.5,1.7l-2.4,1.9c-3.1,2.7-6,5.7-8.2,9.1
			c-1.1,1.7-2,3.5-2.5,5.4c-0.3,0.9-0.4,1.9-0.5,2.9l0,0.7l0.1,0.7c0.1,0.4,0.2,1,0.3,1.2l0.3,0.7l-0.6,0.4l-6,4l-1.4,0.9l0-1.6
			l-0.1-45l0.2,0.7c-3.8-4.3-7.3-8.7-10.8-13.2c-3.5-4.5-6.8-9.2-9.9-13.9c-3.1-4.8-6-9.7-8.5-14.9c-1.2-2.6-2.4-5.2-3.3-8
			c-0.9-2.7-1.7-5.6-1.9-8.5l2.2,0.4c-0.6,1.4-1,3.1-1.2,4.8l-0.2,1.2l-0.1,1.3c-0.1,0.8-0.1,1.7-0.2,2.5c-0.1,3.4,0.2,6.8,0.8,10.1
			c0.3,1.7,0.7,3.3,1.2,4.9c0.4,1.6,1,3.2,1.6,4.8c0.6,1.6,1.3,3.1,1.9,4.7c0.7,1.5,1.5,3,2.3,4.6l1.3,2.5l-2.6-0.7
			c-5.3-1.4-9.9-3.9-14.2-7c-4.3-3.1-8.1-6.8-11.4-10.8c-1.5-2.1-3.2-4.2-4.5-6.5l-1-1.7c-0.3-0.6-0.7-1.1-1-1.7l-1.7-3.5
			c-0.6-1.2-1.1-2.4-1.6-3.6l-1.4-3.6c-0.8-2.5-1.5-5-2.3-7.5l2.4,0.5c-0.1,0.1-0.3,0.4-0.4,0.7c-0.1,0.3-0.3,0.6-0.4,0.8
			c-0.2,0.6-0.4,1.2-0.6,1.8c-0.2,0.6-0.3,1.3-0.4,1.9c0,0.7-0.2,1.3-0.1,2c-0.1,2.7,0.3,5.4,1.1,8c0.3,1.3,0.8,2.6,1.3,3.9
			c0.5,1.3,1.1,2.6,1.6,3.8c0.6,1.2,1.3,2.5,1.9,3.7l2.2,3.6l2.4,3.9l-4.1-1.8c-2.5-1.1-4.7-2.6-6.8-4.1c-1-0.8-2.1-1.6-3-2.5
			l-1.4-1.3c-0.5-0.4-0.9-0.9-1.3-1.4c-3.6-3.8-6.4-8.2-8.7-12.9c-1-2.4-2.1-4.8-2.7-7.3l-0.6-1.9c-0.2-0.6-0.4-1.2-0.5-1.9
			l-0.8-3.8c-0.3-1.3-0.4-2.5-0.6-3.8l-0.4-3.8c-0.1-2.6-0.1-5.1-0.2-7.7l1.2,1.5c-6.2-1.3-12.8-1.9-19.1-1.7
			c-6.4,0.2-12.8,1.1-18.5,3.7c-5.7,2.5-10.4,7-12.6,12.8c-0.3,0.7-0.5,1.4-0.8,2.2c-0.2,0.7-0.5,1.5-0.6,2.2l-0.4,2.3l-0.2,2.3
			l-0.1,1.2c0,0.4,0,0.8,0,1.2l0,2.4c0.1,1.6,0.3,3.2,0.4,4.8l0.3,4.2l-3-2.7c-0.6-0.5-1.1-1-1.5-1.5c-0.5-0.5-0.9-1-1.3-1.6
			c-0.8-1.1-1.5-2.2-2.1-3.4c-1.3-2.4-2.2-4.9-2.8-7.5c-0.2-1.3-0.5-2.6-0.6-3.9c0-0.7-0.1-1.3-0.2-2l0-2c0-0.7,0-1.3,0.1-2l0.2-2
			c0.2-1.3,0.4-2.6,0.6-3.9l2.6,1.8c-1.1,0.8-2.4,1.8-3.5,2.8c-1.1,1.1-2.1,2.2-3.1,3.4c-1.9,2.4-3.3,5.1-4.3,7.9
			c-1,2.8-1.4,5.9-1.2,8.9c0.2,3,0.8,6,1.8,8.9l1.5,4.1l-3.9-1.8c-2.1-1-4-2.1-5.8-3.3c-1.8-1.3-3.6-2.7-5.2-4.4
			c-1.5-1.7-2.9-3.7-3.6-6.2c-0.7-2.4-0.4-5.2,0.6-7.5l3.3,1.6c-1.6,3.1-3.1,6.2-4.6,9.4c-1.4,3.2-2.8,6.4-4,9.7
			c-1.2,3.3-2.3,6.6-3,9.9c-0.8,3.3-1.4,6.7-1.1,9.9l0.1,1.4l-1.4,0.5c-1.8,0.7-3.8,1.7-5.3,2.9c-1.6,1.2-2.7,2.7-2.6,3.9
			c0,0.2,0,0.3,0,0.5c0.1,0.2,0.1,0.3,0.2,0.6c0,0.2,0.1,0.3,0.1,0.5c0,0.1,0,0.2,0.1,0.4c0,0.1,0,0.1,0,0.4l0,0.1l0,0.1
			c0,0,0,0.1,0,0.2c0,0.2-0.1,0.4-0.2,0.5c0,0.1-0.1,0.2-0.1,0.2c-0.1,0.1-0.4,0.5-0.7,0.6c-0.3,0.2-0.7,0.3-1.1,0.3
			c-0.4,0-0.3,0-0.5-0.1c-0.2-0.1-0.4-0.2-0.6-0.3c-0.2-0.2-0.2-0.2-0.2-0.2l-0.1-0.1c-0.2-0.2-0.2-0.2-0.2-0.3
			c-0.1-0.1-0.2-0.2-0.2-0.3c-0.1-0.2-0.2-0.3-0.2-0.5c-0.5-1.2-0.9-2.3-1.2-3.5c-0.6-2.3-1-4.6-1.3-6.9c-0.5-4.6-0.2-9.3,0.7-13.9
			c1-4.6,2.6-9,4.9-13l1.2,3c-0.1,0-0.5-0.1-0.7-0.1c-0.3,0-0.6,0-0.9,0c-0.6,0-1.2,0.1-1.8,0.2c-0.6,0.1-1.2,0.3-1.8,0.5
			c-0.6,0.3-1.2,0.5-1.8,0.8c-2.3,1.2-4.4,2.9-6.2,5l-0.7,0.8l-0.6,0.8l-1.2,1.7c-0.7,1.2-1.5,2.4-2.2,3.6c-0.6,1.3-1.3,2.5-1.9,3.8
			l-1.7,3.9l-4.7,11.1l0.6-11.9c0.2-4.2,0.7-8.2,1.3-12.3c0.7-4,1.5-8.1,2.7-12c1.2-4,2.6-7.9,4.4-11.6c1.9-3.7,4.2-7.3,7-10.5
			l1.3,3.7c-2-0.3-4.3-0.3-6.4-0.2c-2.1,0.1-4.3,0.4-6.2,1c-2,0.6-3.7,1.5-5.1,2.8c-0.7,0.6-1.2,1.3-1.7,2.1c-0.4,0.8-0.7,1.7-1,2.6
			l-4.4-1.4c1.1-2.6,2.3-4.9,3.7-7.3c1.4-2.3,2.9-4.6,4.6-6.8c1.7-2.2,3.7-4.2,6.2-5.9c1.2-0.8,2.6-1.5,4.1-2
			c1.5-0.5,3.1-0.7,4.8-0.6l-2.6,2.1c0.1-1.5,0.1-3.3-0.3-4.6c-0.2-0.7-0.5-1.3-0.8-1.8c-0.3-0.4-0.6-0.7-1.1-0.9
			c-0.8-0.3-2.3-0.2-3.7,0.3c-1.5,0.5-3,1.3-4.5,2.3l-5.4,3.3l1.7-6c0.1-0.2,0.1-0.5,0.2-0.7l0.2-0.6c0.2-0.4,0.3-0.8,0.5-1.2
			c0.4-0.7,0.7-1.5,1.1-2.3l1.2-2.1c0.4-0.7,0.9-1.3,1.4-2c0.5-0.7,0.9-1.3,1.4-2l1.6-1.8l1.6-1.8l1.7-1.7l1.7-1.7l0.9-0.8l0.9-0.8
			l3.7-3c0.6-0.5,1.3-1,1.9-1.4l2-1.3c1.3-0.9,2.6-1.8,3.9-2.6l4.1-2.3l2.1-1.2c0.7-0.4,1.4-0.8,2.1-1.1l8.5-4l8.8-3.3l2.2-0.8
			c0.7-0.2,1.5-0.5,2.2-0.7l4.5-1.4c5.9-2,12-3.2,18.1-4.7l2.3-0.5c0.8-0.2,1.5-0.3,2.3-0.4l4.6-0.8l9.2-1.6
			c6.1-0.8,12.3-1.5,18.5-2.3c3.1-0.3,6.2-0.5,9.3-0.7c3.1-0.2,6.2-0.2,9.3-0.4c12.5-0.2,25,0.7,37.3,3c6.2,1.1,12.2,2.8,18.2,4.7
			c6,2,11.8,4.4,17.4,7.1c11.2,5.6,21.6,13,30.6,21.7c4.5,4.4,8.7,9,12.6,13.9c1.9,2.4,3.8,4.9,5.6,7.5l2.7,3.7
			c0.9,1.2,1.8,2.4,2.7,3.3l-0.6-0.5c2.1,1.1,4,2.2,5.9,3.4c1.9,1.2,3.7,2.5,5.5,3.9c3.5,2.7,6.8,5.7,9.9,9
			c6.1,6.5,11.2,14,14.7,22.2c3.6,8.2,5.4,17.1,6,25.9c0.2,4.5,0.1,8.8,0.2,13.1c0.1,4.3,0.2,8.6,0.3,13c0.1,4.3,0.3,8.6,0.5,13
			c0.2,4.3,0.4,8.7,0.4,13.1c0,4.4-0.5,9.1-2.3,13.4c-0.9,2.2-2.1,4.1-3.3,6c-1.3,1.8-2.7,3.6-4,5.2c-2.7,3.4-5.4,6.8-7.8,10.3
			c-2.5,3.5-4.7,7.1-6.5,11c-1.7,3.8-3,7.9-2.9,11.9c0.1,2,0.5,4,1.3,5.8c0.8,1.8,1.9,3.5,3.3,5l1.5,1.7l-2.2,0.5
			c-2.1,0.5-4.2,0.7-6.4,0.9c-2.1,0.1-4.3,0.1-6.5-0.3c-1.1-0.2-2.2-0.5-3.2-1c-1.1-0.5-2.1-1.2-2.9-2.2c-0.8-1-1.3-2.2-1.5-3.3
			c-0.2-1.2-0.1-2.3,0-3.5l2.3,0.3c-0.5,4.1-1.2,8.1-2.1,12c-0.9,4-2.1,7.9-3.5,11.7c-1.5,3.8-3.2,7.5-5.5,11
			c-2.2,3.4-5.1,6.6-8.6,8.8l-1.2,0.8l0.1-1.4c0.2-4.4,0.3-8.9,0-13.3c-0.1-1.1-0.2-2.2-0.4-3.2c-0.1-0.5-0.2-1-0.4-1.5
			c-0.1-0.2-0.2-0.4-0.3-0.4c0,0,0,0,0,0c0,0-0.1,0-0.2,0.1c-0.3,0.2-0.6,0.7-0.8,1.1c-0.2,0.5-0.4,0.9-0.6,1.5
			c-0.3,1-0.6,2.1-0.8,3.2c-0.8,4.3-1.1,8.9-2.6,13.2c-0.8,2.1-1.9,4.2-3.4,5.9c-0.8,0.9-1.7,1.6-2.6,2.2l-0.7,0.5l-0.8,0.4
			C560,456.3,559.2,456.6,558.7,456.7z M559,456.3c0.2-0.1,0.4-0.3,0.6-0.4c0.1-0.1,0.2-0.1,0.3-0.1l0.4-0.2l0.7-0.4l0.7-0.4
			c0.9-0.6,1.7-1.3,2.4-2.2c1.5-1.6,2.5-3.6,3.2-5.7c1.4-4.2,1.6-8.6,2.3-13.1c0.2-1.1,0.4-2.2,0.8-3.3c0.4-1.1,0.8-2.2,1.8-3.2
			c0.1-0.1,0.3-0.2,0.6-0.3c0.3-0.1,0.6,0,0.8,0.1c0.5,0.3,0.6,0.6,0.8,0.9c0.3,0.6,0.4,1.2,0.6,1.7c0.2,1.1,0.4,2.3,0.5,3.4
			c0.4,4.5,0.4,9,0.2,13.5l-1.1-0.7c3.3-2.1,5.9-5.1,8-8.5c2.1-3.3,3.8-7,5.1-10.7c1.3-3.7,2.4-7.6,3.3-11.5
			c0.8-3.9,1.5-7.9,1.9-11.8l2.3,0.3c-0.1,0.9-0.2,1.9,0,2.7c0.2,0.8,0.5,1.6,1,2.2c1.1,1.3,2.9,2,4.7,2.3c1.9,0.3,3.9,0.3,5.9,0.2
			c2-0.1,4-0.4,5.9-0.9l-0.6,2.1c-1.6-1.7-2.9-3.6-3.9-5.7c-1-2.1-1.5-4.5-1.6-6.8c-0.2-4.7,1.2-9.1,3-13.2
			c1.8-4.1,4.1-7.9,6.6-11.5c2.5-3.6,5.1-7.1,7.8-10.5c1.4-1.7,2.7-3.4,3.8-5.1c1.1-1.7,2.2-3.5,2.9-5.4c1.5-3.8,1.9-7.9,1.9-12.1
			c0-4.2-0.3-8.6-0.5-12.9c-0.3-4.3-0.5-8.7-0.7-13c-0.2-4.3-0.3-8.7-0.4-13.1c-0.1-4.3-0.1-8.8-0.2-12.9
			c-0.5-8.4-2.4-16.8-5.8-24.5c-3.4-7.7-8.2-14.8-14-20.9c-2.9-3.1-6.1-5.9-9.4-8.4c-1.7-1.3-3.4-2.5-5.2-3.6
			c-1.8-1.1-3.6-2.2-5.4-3.1l-0.4-0.2l-0.2-0.3c-1.3-1.3-2.2-2.6-3.1-3.8l-2.7-3.7c-1.8-2.5-3.6-4.9-5.5-7.3
			c-3.8-4.7-7.9-9.2-12.3-13.4c-8.7-8.3-18.7-15.3-29.6-20.6c-5.4-2.6-11-5-16.8-6.8c-5.8-1.8-11.6-3.4-17.6-4.5
			c-11.9-2.3-24.1-3.2-36.2-2.9c-3,0.1-6.1,0.2-9.1,0.4c-3,0.3-6.1,0.4-9.1,0.7c-6.1,0.8-12.1,1.4-18.2,2.2l-9,1.6l-4.5,0.8
			c-0.7,0.1-1.5,0.2-2.3,0.4l-2.2,0.5c-5.9,1.4-11.9,2.6-17.7,4.5l-4.4,1.3c-0.7,0.2-1.5,0.4-2.2,0.7l-2.1,0.8l-8.5,3.2l-8.2,3.8
			c-0.7,0.3-1.3,0.7-2,1l-2,1.1l-3.9,2.2c-1.3,0.8-2.5,1.7-3.7,2.5l-1.9,1.3c-0.6,0.4-1.2,0.8-1.8,1.3l-3.5,2.8l-0.9,0.7l-0.8,0.8
			l-1.6,1.5l-1.6,1.5l-1.4,1.7l-1.4,1.7c-0.5,0.6-0.9,1.2-1.3,1.8c-0.4,0.6-0.9,1.2-1.2,1.8l-1.1,1.9c-0.4,0.6-0.6,1.3-0.9,1.9
			c-0.2,0.3-0.3,0.6-0.4,0.9l-0.2,0.5c-0.1,0.2-0.1,0.2-0.1,0.4l-3.6-2.6c1.7-1,3.4-2,5.5-2.7c1-0.3,2.1-0.6,3.3-0.7
			c1.2-0.1,2.5,0,3.8,0.5c1.3,0.5,2.5,1.5,3.2,2.6c0.7,1.1,1.2,2.2,1.5,3.3c0.3,1.1,0.4,2.2,0.5,3.2c0.1,1.1,0.1,2-0.1,3.2l-0.2,2.3
			l-2.3-0.2c-2-0.2-4,0.5-5.9,1.8c-1.9,1.3-3.6,3-5.2,4.9c-1.6,1.9-2.9,4-4.2,6.2c-1.3,2.2-2.4,4.5-3.4,6.7l-4.4-1.4
			c0.3-1.3,0.8-2.6,1.5-3.8c0.7-1.2,1.6-2.3,2.6-3.2c2-1.9,4.5-3,6.9-3.7c2.4-0.7,4.9-1.1,7.3-1.2c2.5-0.1,4.8-0.1,7.3,0.3l4.2,0.5
			l-2.9,3.2c-2.5,2.8-4.6,6-6.4,9.4c-1.7,3.5-3.1,7.1-4.2,10.9c-1.1,3.8-2,7.6-2.6,11.5c-0.6,3.9-1.1,7.9-1.3,11.7l-4.1-0.8l1.8-4.2
			c0.6-1.4,1.4-2.7,2-4.1c0.7-1.3,1.6-2.6,2.4-3.9l1.4-1.9l0.7-0.9c0.3-0.3,0.5-0.6,0.8-0.9c2-2.4,4.5-4.4,7.5-5.9
			c0.7-0.4,1.5-0.6,2.3-1c0.8-0.2,1.6-0.5,2.4-0.6c0.8-0.2,1.7-0.2,2.5-0.2c0.4,0,0.9,0,1.3,0.1c0.5,0,0.8,0.1,1.5,0.2l2.6,0.6
			l-1.3,2.3c-2.1,3.7-3.7,7.7-4.6,11.8c-0.9,4.1-1.1,8.4-0.7,12.7c0.2,2.1,0.6,4.2,1.1,6.2c0.3,1,0.6,2,1,2.9l0.1,0.2c0,0,0,0.1,0,0
			c0,0,0,0-0.1-0.1l-0.1-0.1c0,0,0,0-0.2-0.2c-0.2-0.1-0.4-0.2-0.6-0.3c-0.2,0-0.1,0-0.4-0.1c-0.3,0-0.7,0.1-1,0.2
			c-0.3,0.2-0.6,0.5-0.7,0.6c0,0.1-0.1,0.1-0.1,0.2c-0.1,0.2-0.1,0.3-0.2,0.5l0,0.2l0,0.1l0,0.2c0,0.1,0,0,0,0l-0.1-0.3
			c-0.1-0.2-0.2-0.6-0.3-1c-0.1-0.4-0.1-0.8-0.1-1.2c-0.1-1.6,0.6-3.2,1.4-4.3c0.8-1.1,1.8-2,2.8-2.8c2-1.5,4.1-2.6,6.4-3.5l-1.3,2
			c-0.2-3.9,0.5-7.5,1.3-11.1c0.8-3.5,2-7,3.2-10.3c1.2-3.4,2.6-6.7,4.1-9.9c1.5-3.3,3-6.5,4.7-9.7l3.3,1.6c-0.7,1.6-0.9,3.3-0.5,5
			c0.4,1.7,1.5,3.3,2.8,4.7c1.3,1.4,2.9,2.7,4.5,3.9c1.7,1.1,3.5,2.2,5.2,3l-2.4,2.3c-1.1-3.2-1.9-6.5-2-10
			c-0.1-3.4,0.4-6.9,1.5-10.2c1.1-3.3,2.8-6.3,4.9-8.9c1-1.3,2.2-2.6,3.4-3.8c1.2-1.2,2.5-2.2,4-3.3l3.3-2.2l-0.6,4
			c-0.2,1.2-0.4,2.4-0.6,3.6l-0.2,1.8c-0.1,0.6-0.1,1.2-0.1,1.8l0,1.8c0,0.6,0.1,1.2,0.1,1.8c0.1,1.2,0.3,2.3,0.5,3.5
			c0.5,2.3,1.3,4.5,2.4,6.6c0.5,1,1.2,2,1.9,3c0.4,0.5,0.7,0.9,1.1,1.3c0.4,0.4,0.8,0.9,1.1,1.2l-2.7,1.5c-0.1-1.7-0.3-3.4-0.4-5
			l0-2.5c0-0.4,0-0.8,0-1.3l0.1-1.3l0.2-2.6l0.5-2.5c0.1-0.9,0.4-1.7,0.7-2.5c0.3-0.8,0.5-1.7,0.9-2.5c1.2-3.2,3.3-6.2,5.7-8.7
			c2.5-2.5,5.4-4.4,8.6-5.8c6.3-2.8,13.1-3.8,19.8-3.9c6.7-0.1,13.3,0.5,19.9,1.9l1.2,0.2l0,1.3c0.1,2.5,0,5,0.2,7.4l0.4,3.7
			c0.1,1.2,0.2,2.5,0.5,3.7l0.7,3.6c0.1,0.6,0.3,1.2,0.5,1.8l0.5,1.8c0.6,2.4,1.7,4.6,2.6,6.9c2.1,4.4,4.8,8.5,8.1,12.1
			c0.4,0.4,0.8,0.9,1.3,1.3l1.3,1.2c0.9,0.9,1.9,1.6,2.8,2.4c1.9,1.4,4,2.8,6.1,3.8l-1.7,2.1l-2.2-3.7c-0.7-1.3-1.3-2.6-2-3.9
			c-0.6-1.3-1.2-2.7-1.7-4c-0.5-1.4-1-2.8-1.3-4.2c-0.8-2.8-1.2-5.8-1.1-8.8c0-0.8,0.1-1.5,0.2-2.3c0.1-0.8,0.2-1.5,0.4-2.3
			c0.2-0.7,0.4-1.5,0.7-2.2c0.2-0.4,0.3-0.7,0.5-1.1c0.2-0.4,0.4-0.7,0.7-1.1l1.6-2.1l0.8,2.6c0.7,2.4,1.4,4.9,2.2,7.3l1.4,3.5
			c0.5,1.2,0.9,2.4,1.5,3.5l1.7,3.4c0.3,0.6,0.6,1.1,0.9,1.6l1,1.6c1.2,2.2,2.8,4.2,4.2,6.2c3.2,3.9,6.8,7.4,10.8,10.4l1.5,1.1
			l1.6,1c1,0.7,2.2,1.2,3.3,1.8c2.2,1.1,4.6,2.1,6.9,2.7l-1.4,1.8c-0.8-1.6-1.6-3.1-2.3-4.7c-0.7-1.6-1.4-3.2-2-4.9
			c-0.6-1.7-1.2-3.3-1.6-5c-0.5-1.7-0.8-3.4-1.2-5.2c-0.6-3.5-0.9-7-0.8-10.6c0-0.9,0.1-1.8,0.2-2.7l0.1-1.3l0.2-1.3
			c0.3-1.8,0.7-3.5,1.4-5.3l1.8-4.5l0.4,4.8c0.2,2.7,0.9,5.4,1.8,8c0.9,2.6,2,5.2,3.1,7.7c2.4,5.1,5.2,9.9,8.3,14.7
			c3.1,4.7,6.3,9.3,9.7,13.8c3.4,4.5,7,8.9,10.6,13.2l0.2,0.3l0,0.4l-0.1,45l-1.4-0.7l6-4l-0.3,1.1c-0.3-0.7-0.4-1.2-0.5-1.8
			l-0.1-0.9l0-0.8c0.1-1.1,0.2-2.2,0.5-3.3c0.6-2.1,1.6-4.1,2.8-5.9c2.3-3.6,5.4-6.6,8.6-9.4l2.5-2c0.9-0.6,1.8-1.2,2.6-1.8
			c0.9-0.6,1.9-1,2.8-1.5l1.5-0.6c0.5-0.2,1-0.4,1.5-0.5l1.6-0.4c0.5-0.1,1.1-0.1,1.6-0.2l0.8-0.1c0.3,0,0.5,0,0.8,0
			c0.5,0.1,1.1,0.1,1.6,0.1c2.2,0.4,4.2,1.3,6.1,2.3c3.7,2.3,6.7,5.4,9.4,8.5c0.7,0.8,1.4,1.6,2,2.4c0.6,0.9,1.3,1.7,1.9,2.6
			c1.1,1.8,2.1,3.7,2.8,5.7c1.5,4,2.4,8.1,2.9,12.3c0.5,4.2,0.6,8.4,0.3,12.6l0,0.1l0,0.1c-1.2,3.4-2.5,6.7-4,9.9
			c-1.5,3.2-3.1,6.4-4.9,9.5c-3.5,6.2-7.7,12-12.6,17.2c-0.6,0.7-1.3,1.3-1.9,1.9l-2,1.8c-1.4,1.2-2.8,2.3-4.4,3.2
			c-3.1,1.9-6.6,3.1-10.2,3.4c-3.6,0.3-7.2-0.2-10.6-1.4c-3.4-1.2-6.5-3-9.3-5.3l0.5-0.6c2,1.6,3.8,3.4,5.4,5.4
			c1.5,2,2.8,4.2,3.8,6.5c2,4.6,3.1,9.7,3.5,14.7c0.4,5,0.1,10.1-0.5,15.1c-0.3,2.5-0.8,5-1.3,7.4c-0.3,1.2-0.6,2.5-0.9,3.7
			l-0.5,1.8l-0.3,0.9l-0.1,0.5l-0.1,0.2l0,0.1C559.1,456.4,559.1,456.3,559,456.3z"/>
	</g>
	<g>
		<path d="M541.9,405.5c0.1,0.9,0.1,1.7,0,2.6l-0.1,1.3l-0.2,1.3c-0.3,1.7-0.7,3.4-1.3,5.1c-0.2,0.8-0.6,1.6-0.9,2.4l-0.5,1.2
			c-0.2,0.4-0.4,0.8-0.6,1.2c-0.4,0.8-0.8,1.6-1.2,2.3l-1.4,2.2c-3.8,5.8-9,10.7-14.5,14.8c-5.6,4.1-11.7,7.5-17.9,10.7
			c-6.1,3.2-12.3,6.3-18.5,9.4c-12.4,6.2-24.8,12.4-37.8,17.4c-3.3,1.2-6.5,2.4-9.9,3.4c-1.7,0.5-3.4,0.9-5.1,1.2
			c-0.9,0.1-1.8,0.3-2.6,0.3l-2.6,0.2c-3.5,0.2-7,0.3-10.4,0c-3.5-0.3-7-0.9-10.2-2l0.1-0.2c6.7,1.8,13.7,1.4,20.5,0.8
			c1.7-0.2,3.4-0.3,5.1-0.6c1.6-0.4,3.3-0.8,4.9-1.3c3.3-1,6.5-2.3,9.7-3.6c3.2-1.3,6.4-2.6,9.5-4c3.2-1.4,6.3-2.8,9.5-4.2
			c6.3-2.8,12.6-5.8,18.8-8.8c6.2-3,12.4-6.1,18.6-9.2c6.2-3,12.3-6.3,17.9-10.3c5.6-4,10.7-8.7,14.6-14.4l1.4-2.1
			c0.4-0.7,0.8-1.5,1.3-2.3c0.2-0.4,0.4-0.8,0.6-1.1l0.5-1.2c0.3-0.8,0.7-1.6,1-2.4c0.6-1.6,1.1-3.3,1.4-5l0.2-1.3l0.1-1.3
			c0.1-0.9,0.1-1.7,0-2.6L541.9,405.5z"/>
	</g>
	<g>
		<path d="M410.3,294c2.7,8.9,4.4,18.3,4.4,27.7c0,4.7-0.5,9.5-1.9,14.1c-0.7,2.3-1.7,4.5-3.1,6.6l-0.5,0.8l-0.6,0.7
			c-0.4,0.5-0.8,1-1.1,1.4c-0.7,0.9-1.5,1.8-2.1,2.7c-0.7,0.9-1.4,1.8-1.9,2.8c-0.3,0.5-0.6,1-0.9,1.5l-0.8,1.5
			c-0.9,2-1.5,4.2-1.3,6.3c0,0.3,0.1,0.5,0.1,0.8c0.1,0.2,0.1,0.5,0.2,0.7c0.2,0.5,0.4,0.9,0.7,1.3c0.3,0.4,0.7,0.8,1,1.2
			c0.4,0.3,0.8,0.7,1.3,1c0.9,0.6,2,1,2.9,1.4c0.5,0.1,0.9,0.2,1.2,0.1c0.3-0.1,0.6-0.4,0.9-0.8c0.5-0.9,1-2.1,1.9-3.1
			c0.5-0.5,1.1-0.9,1.7-1.1c0.6-0.2,1.3-0.3,1.9-0.3c2.5,0.1,4.8,1,6.9,1.9c1.1,0.5,2.1,1,3.2,1.7c0.2,0.2,0.5,0.4,0.7,0.7
			c0,0.1,0.1,0.2,0.1,0.3c0,0.1,0.1,0.2,0,0.4c-0.1,0.3-0.2,0.4-0.4,0.6c-0.6,0.4-1.2,0.4-1.8,0.5c-2.4,0.3-4.7,0.1-7-0.1
			c1.2,0,2.3,0,3.5-0.1c1.2-0.1,2.3-0.1,3.5-0.3c0.5-0.1,1.1-0.3,1.5-0.5c0.1-0.2,0.1-0.1,0-0.3c-0.1-0.2-0.3-0.3-0.6-0.5
			c-0.9-0.6-2-1-3.1-1.4c-2.1-0.8-4.4-1.6-6.5-1.5c-1.1,0-2,0.4-2.7,1.1c-0.7,0.7-1,1.8-1.6,2.9c-0.3,0.6-0.8,1.2-1.6,1.6
			c-0.8,0.3-1.6,0.2-2.2,0c-1.2-0.4-2.4-0.8-3.4-1.5c-2.2-1.2-4-3.6-4.3-6.2c-0.3-2.6,0.4-5.1,1.4-7.3l0.8-1.6
			c0.3-0.5,0.6-1,0.9-1.6c0.6-1.1,1.3-2,2-3c0.7-1,1.5-1.9,2.2-2.8c0.4-0.5,0.7-0.9,1.1-1.3l0.5-0.7l0.5-0.7
			c1.2-1.9,2.2-3.9,2.9-6.1c1.4-4.3,2-8.9,2.2-13.5c0.1-4.6-0.1-9.3-0.6-13.9C412.1,303.2,411.3,298.6,410.3,294z"/>
	</g>
	<g>
		<path d="M406.8,281.5c-2.9-1.5-5.7-2.9-8.4-4.2c-2.7-1.3-5.4-2.4-8.2-3.3c-2.7-0.8-5.5-1.4-8.4-1.5c-2.9-0.1-5.8,0.3-9.1,1
			c2.2-2.5,5.3-4.2,8.7-4.9c3.4-0.7,7-0.4,10.2,0.6c3.3,1,6.2,2.7,8.8,4.7C403.1,276.1,405.3,278.5,406.8,281.5z"/>
	</g>
	<g>
		<path d="M522.8,292.5c-3-2-6-3.8-9-5.4c-3-1.7-6.2-3.2-9.3-4.6c-6.3-2.8-12.8-4.9-19.5-6.3c-3.3-0.7-6.7-1.2-10.1-1.6
			c-3.4-0.3-6.8-0.4-10.3-0.4c-6.9,0.1-13.8,1-20.8,2.3c6.3-3.3,13.3-5.3,20.5-6.3c3.6-0.4,7.2-0.6,10.9-0.4
			c3.6,0.2,7.3,0.6,10.8,1.4c7.1,1.5,14,4.1,20.2,7.7c3.1,1.8,6.1,3.8,8.9,6C517.9,287.3,520.6,289.7,522.8,292.5z"/>
	</g>
	<path class="st4" d="M429.8,414.5c0,0,23-6,23-12s-13-10-13-10s-21-5-30-2s-13,6-6,16s6,10,14,9S429.8,414.5,429.8,414.5z"/>
	<path class="st5" d="M403.8,399.5c0,0,21,0,29-2s7.5-4.5,7.5-4.5s-21-5-29-3c-7.1,1.8-8.7,4.3-8.7,4.3L403.8,399.5z"/>
	<path class="st6" d="M406.1,408.8c0,0,16.7-12.3,46.7-7.8c0,0,2.2,2.7-3.9,6.1c-6.1,3.4-14.1,6.4-19.1,7.4c0,0-8,0-12,1
		s-4.4,1-6.7,0C408.8,414.5,406.1,408.8,406.1,408.8z"/>
	<path class="st7" d="M597.3,349l-15-22l-21,25c0,0,10,7,6,13s-12,11-12,11s-4,20,15,10s22-12,20-20"/>
	<path class="st7" d="M581.8,355.5c0,0,2-17-6-18"/>
	<g>
		<path d="M427.8,431.5c-0.8,1.1-1.9,1.8-3,2.4c-1.1,0.6-2.3,1-3.6,1.3c-1.3,0.2-2.6,0.3-3.9,0c-1.3-0.3-2.6-0.8-3.5-1.7l3.6-0.6
			c1.1-0.2,2.2-0.4,3.3-0.6c1.1-0.2,2.2-0.4,3.4-0.5C425.3,431.6,426.5,431.5,427.8,431.5z"/>
	</g>
	<g>
		<path d="M437.8,500.5c-0.7-2.1-1.4-4.2-2.2-6.2c-0.8-2-1.8-3.9-3-5.6c-1.2-1.7-2.6-3.3-4.3-4.4c-1.7-1.1-3.8-1.8-6-2.2
			c2.2-0.5,4.6-0.2,6.7,0.8c1.1,0.5,2,1.2,2.9,2c0.9,0.8,1.6,1.7,2.3,2.7c1.3,1.9,2.2,4.1,2.8,6.3C437.6,496,438,498.3,437.8,500.5z
			"/>
	</g>
	<path class="st1" d="M569.8,477.5c0,0,52,3,52-4s-34.5-28.3-54.8-25.1c0,0-1.2,1.6-2.2,4.4l1,24.8H569.8z"/>
	<path class="st1" d="M506.8,534.5c0,0-27-37-47.5-21c0,0,3.5-8,50.5-30l56-6C565.8,477.5,513.8,505.5,506.8,534.5z"/>
	<path class="st8" d="M493.3,315.5l-2.5,6.1l-8,2.4c0,0-12,5.7-24,2.4c-9-2.4-10-18.3-8.5-20.8c1-1.7,21.2-9.8,29.5-4.5
		c7.5,4.8,11.5,10.8,11.5,10.8L493.3,315.5z"/>
	<path class="st8" d="M403.3,307c0,0,4,12.6-1,16.6c0,0-9.5,3.7-21.5,0.4l-3-18C377.8,306.1,395.3,294,403.3,307z"/>
	<path class="st3" d="M467.3,319.6c0,0,10-6.5,1-17.1c0,0-1.6-2.6-3.3-2.1c-1.7,0.5-9.8,2.9-9.8,2.9s-2.9,7.4,0.1,13.9
		C458.3,323.6,467.3,319.6,467.3,319.6z"/>
	<g>
		<path d="M482.3,329c-0.9,0.5-1.8,1-2.8,1.4c-1,0.4-1.9,0.9-2.9,1.2c-2,0.7-4,1.2-6,1.6c-2.1,0.3-4.2,0.4-6.3,0.3
			c-2.1-0.1-4.2-0.4-6.2-1.1l0,0c-1.2-0.4-2.4-1-3.3-1.8c-0.9-0.8-1.7-1.9-2.3-3c-1.2-2.2-1.8-4.6-2.2-7c-0.4-2.4-0.6-4.9-0.6-7.3
			c0-2.4,0-4.9,0.3-7.3l0-0.1l0.1-0.1c3.7-2.4,7.7-4.5,12-5.7l1.6-0.5l1.6-0.3c0.5-0.1,1.1-0.2,1.7-0.3c0.6-0.1,1.1-0.2,1.7-0.2
			c2.2-0.2,4.5,0.1,6.7,0.5c4.4,0.9,8.5,3.4,11.6,6.5c3.2,3.2,5.6,7,7.2,11.1l-0.1,0c-1.9-4-4.5-7.6-7.7-10.6
			c-3.2-3-7.1-5.2-11.3-6.1c-4.2-0.9-8.7-0.6-12.8,0.6c-4.2,1.2-8.2,3.1-12,5.3l0.1-0.2c-0.3,2.4-0.5,4.8-0.5,7.3
			c0,2.4,0.2,4.9,0.6,7.2c0.4,2.4,1.2,4.7,2.4,6.8c1.2,2.1,3.1,3.7,5.3,4.3l0,0l0,0c1.9,0.6,3.9,0.9,5.9,1.1c2,0.1,4.1,0,6.1-0.2
			c2-0.3,4-0.7,6-1.3c1-0.3,1.9-0.7,2.9-1C480.4,329.8,481.3,329.3,482.3,329L482.3,329z"/>
	</g>
	<g>
		<path d="M403.3,307c-0.7-1.1-1.5-2-2.4-2.8c-0.9-0.8-2-1.5-3.1-1.9c-2.2-0.9-4.7-1-7.1-0.6c-2.4,0.4-4.7,1.3-7.1,2
			c-1.2,0.4-2.4,0.8-3.5,1.3c-0.6,0.2-1.1,0.5-1.7,0.8c-0.3,0.2-0.5,0.3-0.8,0.5c-0.1,0.1-0.2,0.2-0.3,0.3c-0.1,0.1-0.1,0.3,0,0.4
			c-0.2-0.1-0.2-0.3-0.1-0.4c0.1-0.2,0.2-0.3,0.3-0.4c0.2-0.2,0.5-0.4,0.7-0.6c0.5-0.4,1.1-0.7,1.6-1c1.1-0.6,2.3-1.1,3.4-1.6
			c2.3-0.9,4.7-1.9,7.2-2.3c2.5-0.4,5.2-0.3,7.6,0.9C400.5,302.7,402.4,304.7,403.3,307z"/>
	</g>
	<g>
		<path d="M400.8,328.5c-1.5,1.1-3.2,1.8-5,2.2c-1.8,0.5-3.6,0.7-5.4,0.8c-1.8,0-3.7-0.1-5.4-0.5c-0.9-0.1-1.8-0.4-2.6-0.6
			c-0.9-0.3-1.7-0.6-2.5-0.9c0.9,0.1,1.8,0.3,2.7,0.5c0.9,0.1,1.8,0.3,2.7,0.3l1.3,0.1c0.4,0,0.9,0,1.3,0.1c0.9,0.1,1.8,0,2.6,0
			c1.8-0.1,3.5-0.2,5.3-0.6C397.4,329.6,399.2,329.2,400.8,328.5z"/>
	</g>
	<path class="st3" d="M390.8,301.6c0,0,4.5,6.4,3.4,11.9s-4.5,6.4-7.9,6.4s-6.8-4.6-6.8-7.3c0-2.8,1.3-8.1,1.3-8.1
		S385.1,302.5,390.8,301.6z"/>
	<polygon class="st9" points="253.3,768 215.5,627.6 40.5,669.6 61.3,768 	"/>
	<polygon class="st10" points="218.3,768 181.3,632 2.3,675 26.3,768 	"/>
	<polygon class="st11" points="246.3,768 213.3,630 182.3,635 217.3,768 	"/>
	<polygon class="st12" points="213.3,768 177.3,633 2.3,675 21.3,768 	"/>
	<polygon class="st13" points="180.3,710 165.3,648 17.3,684 33.3,744 	"/>
	<circle cx="433.3" cy="462.5" r="1.5"/>
	<circle cx="485.6" cy="412.2" r="1.2"/>
	<path class="st14" d="M621.8,473.5v34c0,0-6,6-19,9s-21,8-21,8l-47,50l-81,64l-16,19l-111,110h-54c0,0,3-78,7-84l-27-38l31-20
		l71.8-40c0,0,37.2,32,50.2,26s44-17,44-17l9-79l107-38C565.8,477.5,622.8,481.5,621.8,473.5z"/>
	<g>
		<line class="st11" x1="208.3" y1="633" x2="242.3" y2="769"/>
		<path d="M208.4,633c3.2,11.3,6.1,22.6,8.9,33.9c1.4,5.7,2.6,11.4,4,17.1c1.4,5.7,2.9,11.3,4.3,17c3,11.3,5.9,22.6,8.7,33.9
			c2.8,11.3,5.5,22.7,8,34.1l-0.1,0c-3.1-11.3-6.1-22.6-9-33.9c-2.9-11.3-5.6-22.7-8.3-34.1c-1.3-5.7-2.7-11.4-4.2-17
			c-1.4-5.7-3-11.3-4.5-16.9C213.5,655.8,210.8,644.4,208.4,633L208.4,633z"/>
	</g>
	<g>
		<line class="st11" x1="204.3" y1="633" x2="238.3" y2="769"/>
		<path d="M204.4,633c3.2,11.3,6.1,22.6,8.9,33.9c1.4,5.7,2.6,11.4,4,17.1c1.4,5.7,2.9,11.3,4.3,17c3,11.3,5.9,22.6,8.7,33.9
			c2.8,11.3,5.5,22.7,8,34.1l-0.1,0c-3.1-11.3-6.1-22.6-9-33.9c-2.9-11.3-5.6-22.7-8.3-34.1c-1.3-5.7-2.7-11.4-4.2-17
			c-1.4-5.7-3-11.3-4.5-16.9C209.5,655.8,206.8,644.4,204.4,633L204.4,633z"/>
	</g>
	<g>
		<line class="st11" x1="200.3" y1="633" x2="234.3" y2="769"/>
		<path d="M200.4,633c3.2,11.3,6.1,22.6,8.9,33.9c1.4,5.7,2.6,11.4,4,17.1c1.4,5.7,2.9,11.3,4.3,17c3,11.3,5.9,22.6,8.7,33.9
			c2.8,11.3,5.5,22.7,8,34.1l-0.1,0c-3.1-11.3-6.1-22.6-9-33.9c-2.9-11.3-5.6-22.7-8.3-34.1c-1.3-5.7-2.7-11.4-4.2-17
			c-1.4-5.7-3-11.3-4.5-16.9C205.5,655.8,202.8,644.4,200.4,633L200.4,633z"/>
	</g>
	<g>
		<line class="st11" x1="197.3" y1="636" x2="231.3" y2="772"/>
		<path d="M197.4,636c3.2,11.3,6.1,22.6,8.9,33.9c1.4,5.7,2.6,11.4,4,17.1c1.4,5.7,2.9,11.3,4.3,17c3,11.3,5.9,22.6,8.7,33.9
			c2.8,11.3,5.5,22.7,8,34.1l-0.1,0c-3.1-11.3-6.1-22.6-9-33.9c-2.9-11.3-5.6-22.7-8.3-34.1c-1.3-5.7-2.7-11.4-4.2-17
			c-1.4-5.7-3-11.3-4.5-16.9C202.5,658.8,199.8,647.4,197.4,636L197.4,636z"/>
	</g>
	<g>
		<line class="st11" x1="193.3" y1="636" x2="227.3" y2="772"/>
		<path d="M193.4,636c3.2,11.3,6.1,22.6,8.9,33.9c1.4,5.7,2.6,11.4,4,17.1c1.4,5.7,2.9,11.3,4.3,17c3,11.3,5.9,22.6,8.7,33.9
			c2.8,11.3,5.5,22.7,8,34.1l-0.1,0c-3.1-11.3-6.1-22.6-9-33.9c-2.9-11.3-5.6-22.7-8.3-34.1c-1.3-5.7-2.7-11.4-4.2-17
			c-1.4-5.7-3-11.3-4.5-16.9C198.5,658.8,195.8,647.4,193.4,636L193.4,636z"/>
	</g>
	<g>
		<line class="st11" x1="188.3" y1="636" x2="222.3" y2="772"/>
		<path d="M188.4,636c3.2,11.3,6.1,22.6,8.9,33.9c1.4,5.7,2.6,11.4,4,17.1c1.4,5.7,2.9,11.3,4.3,17c3,11.3,5.9,22.6,8.7,33.9
			c2.8,11.3,5.5,22.7,8,34.1l-0.1,0c-3.1-11.3-6.1-22.6-9-33.9c-2.9-11.3-5.6-22.7-8.3-34.1c-1.3-5.7-2.7-11.4-4.2-17
			c-1.4-5.7-3-11.3-4.5-16.9C193.5,658.8,190.8,647.4,188.4,636L188.4,636z"/>
	</g>
	<g>
		<path d="M634.8,534.5c-10.7,12.8-21.2,25.6-31.7,38.6c-10.4,13-20.9,25.9-31,39.1c-5.1,6.6-10,13.3-15,19.9
			c-4.9,6.7-9.8,13.4-14.4,20.3c-4.7,6.9-9.1,13.9-13.1,21.1c-2,3.6-3.9,7.3-5.3,11.2c-0.7,1.9-1.4,3.9-1.7,5.9
			c-0.3,1.9-0.4,4.1,0.7,5.6l0.5,0.7l-0.9,0.2c-6.2,1.3-12.4,2.5-18.6,3.8c-6.2,1.2-12.4,2.5-18.6,3.7c6.1-1.5,12.3-2.9,18.4-4.3
			c6.1-1.4,12.3-2.9,18.4-4.2l-0.3,0.9c-0.7-0.9-1.1-2.1-1.2-3.2c-0.1-1.1,0-2.2,0.1-3.3c0.3-2.1,0.9-4.2,1.6-6.2
			c1.4-4,3.3-7.7,5.2-11.4c3.9-7.4,8.4-14.4,13-21.4c9.3-13.9,19.2-27.3,29.4-40.4c10.2-13.1,20.7-26.1,31.4-38.8
			C612.8,559.4,623.7,546.8,634.8,534.5z"/>
	</g>
	<g>
		<path d="M706.8,695.5c-2.2-6.7-4.7-13.3-7.3-19.8c-2.7-6.5-5.5-12.9-9-19c-1.7-3-3.5-6-5.6-8.8c-2.1-2.8-4.4-5.4-7.1-7.4
			c-2.7-2-5.9-3.5-9.3-3.5c-1.7,0-3.4,0.3-5,1c-1.6,0.6-3.2,1.5-4.6,2.5c2.6-2.3,5.9-4.1,9.6-4.4c1.8-0.1,3.7,0.1,5.4,0.7
			c1.7,0.6,3.4,1.5,4.9,2.5c3,2.1,5.5,4.7,7.7,7.5c2.2,2.8,4.1,5.8,5.9,8.9c3.5,6.2,6.3,12.7,8.7,19.4
			C703.4,681.8,705.3,688.6,706.8,695.5z"/>
	</g>
	<g>
		<path d="M682.8,730.5c0.7-7.1,1.1-14.2,1.4-21.2c0.2-7.1,0.3-14.1-0.3-21.2c-0.3-3.5-0.7-7-1.4-10.4c-0.7-3.4-1.6-6.8-3.1-9.9
			c-1.5-3.1-3.6-6-6.5-7.7c-1.5-0.9-3.1-1.4-4.9-1.6c-1.7-0.2-3.5-0.1-5.3,0.1c3.4-1,7.2-1,10.6,0.7c3.3,1.7,5.8,4.7,7.5,7.9
			c1.7,3.2,2.8,6.7,3.6,10.2c0.8,3.5,1.2,7.1,1.5,10.7c0.5,7.1,0.4,14.3-0.2,21.4C685.3,716.5,684.3,723.5,682.8,730.5z"/>
	</g>
	<g>
		<path d="M673.8,554.5c-6.3,7.3-12.4,14.9-18,22.7c-5.6,7.8-10.9,16-15,24.7c-1,2.2-2,4.4-2.7,6.6c-0.8,2.2-1.5,4.5-1.9,6.8
			l-0.3,1.7c-0.1,0.6-0.1,1.2-0.2,1.7c-0.1,1.2-0.1,2.4-0.2,3.6c0,1.2-0.2,2.4-0.3,3.7c-0.1,1.2-0.3,2.4-0.5,3.7
			c-0.1,0.6-0.2,1.2-0.3,1.8c-0.1,0.6-0.3,1.2-0.4,1.8l-0.6,1.8c-0.2,0.6-0.5,1.2-0.8,1.8c-0.6,1.2-1.3,2.3-2.3,3.2
			c-0.2,0.3-0.5,0.4-0.8,0.6c-0.3,0.2-0.5,0.4-0.8,0.6c-0.6,0.3-1.2,0.6-1.8,0.8c-2.5,0.8-5,0.9-7.4,1.1l-1.8,0.1
			c-0.3,0-0.6,0-0.8,0.1c-0.1,0-0.2,0-0.3,0.1l-0.3,0.1c-0.8,0.4-1.7,1.3-2.5,2.1c-3.1,3.5-5.7,7.6-8.2,11.7
			c-2.5,4.1-4.8,8.4-7.1,12.6c-4.6,8.5-8.8,17.2-13.1,25.8c-4.3,8.7-8.4,17.4-12.5,26.2c-4.1,8.7-8.2,17.5-12.2,26.3
			c3.6-9,7.5-17.9,11.3-26.7c3.9-8.9,7.9-17.7,12-26.4c4.1-8.8,8.4-17.5,12.9-26c2.3-4.3,4.6-8.5,7.1-12.7c1.2-2.1,2.5-4.2,3.9-6.2
			c1.4-2,2.8-4,4.5-5.9c0.9-0.9,1.7-1.8,3.1-2.5l0.5-0.2c0.2-0.1,0.4-0.1,0.6-0.1c0.4-0.1,0.6-0.1,1-0.1l1.8-0.1
			c2.4-0.2,4.8-0.3,6.9-1c0.6-0.1,1-0.4,1.5-0.6c0.2-0.1,0.4-0.3,0.7-0.4c0.2-0.2,0.5-0.3,0.6-0.5c0.8-0.7,1.4-1.6,1.9-2.6
			c0.2-0.5,0.5-1,0.7-1.6l0.5-1.6c0.1-0.6,0.3-1.1,0.4-1.7c0.1-0.6,0.3-1.1,0.3-1.7c0.2-1.2,0.4-2.3,0.5-3.5
			c0.1-1.2,0.3-2.4,0.3-3.6c0.1-1.2,0.1-2.4,0.2-3.6c0.1-0.6,0.1-1.2,0.2-1.9l0.3-1.8c1-4.9,2.8-9.4,5-13.8
			c4.3-8.7,9.8-16.8,15.6-24.6c2.9-3.9,6-7.6,9.1-11.3C667.3,561.6,670.5,558,673.8,554.5z"/>
	</g>
	<path class="st15" d="M467.8,563.5c0,0-37,18-53.2,12.3c-16.1-5.8-29.3-16.1-25.8-32.3c0,0-36.2,4-37,68
		c-0.5,42.4-14.2,112-14.2,112s47.1-59.9,65.5-76.3c14.7-13.1-9.2-24.2,33.4-36.9S467.8,563.5,467.8,563.5z"/>
	<text transform="matrix(0.9707 -0.2404 0.2404 0.9707 43.7735 738.5268)" class="st16 st17">HTML</text>
	<g>
		<g>
			<polygon class="st0" points="529.1,772 513.1,745 463.1,725 460.1,710 431.1,675 406.1,661 396.1,661 353.1,658 293.1,680 
				286.1,735 286.1,764 296.1,773 			"/>
			<path d="M529,771.9c-2.8-4.6-5.7-9-8.4-13.4l-8.2-13l0.5,0.4l-25.1-9.6l-12.6-4.8l-12.5-4.9l-0.8-0.3l-0.2-0.9l-3.1-15l0.4,0.8
				l-14.6-17.4l-14.5-17.5l0.5,0.4l-12.4-7.1l-12.4-7.2l0.7,0.2l-6.7-0.1l-3.3,0l-3.3-0.3l-13.2-1.1c-8.8-0.8-17.7-1.5-26.5-2.2
				l0.3,0l-15,5.4c-5,1.8-10,3.7-15,5.5l-15,5.6c-5,1.8-10,3.7-15,5.6l0.6-0.7l-6.3,55.1l0-0.2l0.3,29l-0.6-1.3l10,8.9l-1.3-0.5
				c19.3-0.2,38.5-0.4,57.7-0.4c9.6,0,19.2,0,28.9,0c9.6,0,19.3,0,28.9,0.2L529,771.9z M529.3,772.1l-115.7,2.1
				c-9.7,0.2-19.5,0.3-29.3,0.4c-9.8,0.1-19.6,0.2-29.4,0.3c-19.6,0.1-39.2,0.1-58.8,0.1l-0.7,0l-0.5-0.5l-10-9.1l-0.6-0.6l0-0.8
				l0.3-29l0-0.1l0-0.1l7.7-54.9l0.1-0.5l0.5-0.2c5-1.8,10-3.5,15-5.4l15-5.4c5-1.8,10-3.6,15-5.5l15-5.6l0.1,0l0.2,0
				c8.8,0.6,17.7,1.1,26.5,1.5l13.2,0.7l3.3,0.2l3.3,0l6.6-0.1l0.3,0l0.3,0.2l12.6,6.8l12.6,6.9l0.3,0.2l0.2,0.3l14.5,17.5
				l14.4,17.6l0.3,0.3l0.1,0.4l2.9,15l-1-1.2l12.5,5.1l12.4,5.2l24.9,10.4l0.3,0.1l0.1,0.3L529.3,772.1z"/>
		</g>
		<g>
			<path class="st2" d="M396.1,661l-90-97l-10-82l-17-17c0,0-31-53-38-55s-31-16-31-16l-17-10c0,0-7-2-5,10s3,20,22,30
				c0,0,10,22,18,24c0,0-1,15,2,20c0,0-10-1-23,0s-65-8-81-7c0,0-25-16-62-8c0,0-9,3-4,8c0,0-7,4-2,9l5,4c0,0-8-1-3,3s12,13,12,13
				s0,4,10,10s65,43,65,43s55,36,64,39s28,26,28,26s48,113,47,127c0,0,12-13,15-36s60-33,60-33L396.1,661z"/>
			<g>
				<path d="M396,660.9l-90.7-96.2l-0.2-0.3l0-0.4l-10.2-82l0.4,0.8l-17-17l-0.1-0.1l-0.1-0.2c-5.1-8.7-10.4-17.4-15.8-26
					c-2.7-4.3-5.5-8.5-8.3-12.7c-2.9-4.2-5.8-8.3-9-12.1c-0.8-0.9-1.6-1.9-2.5-2.6c-0.2-0.2-0.4-0.4-0.6-0.5
					c-0.2-0.1-0.5-0.4-0.6-0.4c-0.1,0-0.2-0.1-0.3-0.1c-0.1-0.1-0.3-0.1-0.4-0.2l-1-0.3c-2.5-0.9-4.7-2.1-7-3.2
					c-4.6-2.3-9-4.8-13.4-7.2c-8.9-5-17.5-10.3-26.3-15.5l0.2,0.1c-0.4-0.1-0.9-0.1-1.3-0.1c-0.4,0-0.8,0.2-1.2,0.4
					c-0.7,0.4-1.2,1.2-1.5,2.2c-0.1,0.5-0.2,1-0.3,1.5c0,0.5-0.1,1-0.1,1.6c0,0.5,0,1.1,0.1,1.6l0.2,1.6c0.7,4.3,1.3,8.7,2.9,12.7
					c1.6,4,4.4,7.4,7.7,10.2c3.3,2.8,7.1,5.1,10.9,7.1l0.2,0.1l0.1,0.2c2.1,4.6,4.5,9.1,7.3,13.3c1.4,2.1,2.8,4.2,4.5,6.1
					c0.8,0.9,1.7,1.8,2.7,2.6c1,0.8,2,1.4,3.1,1.7l0.4,0.1l0,0.4c-0.2,3.3-0.2,6.7-0.1,10.1c0.1,1.7,0.3,3.3,0.5,5
					c0.3,1.6,0.7,3.3,1.4,4.7l0.4,0.8l-0.9-0.1c-4.3-0.4-8.7-0.5-13-0.4c-2.2,0-4.3,0.1-6.5,0.2c-1.1,0.1-2.2,0.1-3.2,0.2
					c-1.1,0-2.2,0.1-3.3,0.1c-8.8-0.2-17.4-1.3-26-2.3c-8.6-1-17.3-2.1-25.9-3c-4.3-0.5-8.6-0.9-13-1.2c-4.3-0.3-8.7-0.6-12.9-0.4
					l-0.2,0l-0.2-0.1c-4.5-2.6-9.5-4.6-14.5-6.1c-5-1.5-10.2-2.6-15.5-3.2c-1.3-0.2-2.6-0.2-3.9-0.4c-1.3-0.1-2.6-0.2-3.9-0.2
					l-4-0.1c-1.3,0-2.6,0.1-3.9,0.2c-2.6,0.1-5.2,0.5-7.9,0.7c-1.3,0.1-2.6,0.4-3.9,0.6l-3.9,0.7l0.1,0c-0.8,0.3-1.6,0.7-2.3,1.1
					c-0.7,0.4-1.4,1-1.9,1.6c-0.5,0.6-0.6,1.2-0.5,1.8c0.1,0.6,0.6,1.2,1.1,1.8l0.9,1l-1.1,0.7c-0.6,0.4-1.3,1-1.9,1.5
					c-0.5,0.6-1,1.2-1.2,1.9c-0.2,0.7-0.2,1.3,0.1,2c0.1,0.3,0.3,0.6,0.5,1c0.2,0.3,0.5,0.6,0.8,0.9l-0.1-0.1l5,4l3.1,2.5l-4-0.4
					c-1-0.1-2-0.1-2.9,0c-0.2,0-0.4,0.1-0.5,0.1c-0.1,0-0.1,0.1,0-0.1c0-0.1,0.1-0.2,0.1-0.3c0,0,0,0,0,0c0,0.1,0.2,0.2,0.3,0.4
					c0.3,0.3,0.6,0.6,1,0.9c0.4,0.4,0.9,0.7,1.3,1.1c0.8,0.7,1.6,1.5,2.4,2.3c3,3.1,5.8,6.3,8.5,9.7l0.3,0.8c0-0.1,0,0,0,0.1
					c0,0.1,0,0.2,0.1,0.3c0.1,0.2,0.2,0.4,0.3,0.6c0.2,0.4,0.5,0.8,0.7,1.2c0.6,0.8,1.3,1.5,2,2.2c1.5,1.4,3.2,2.6,4.9,3.7
					c1.7,1.1,3.7,2.2,5.5,3.4l5.4,3.5c7.2,4.7,14.4,9.4,21.5,14.1l21.4,14.3l10.7,7.1c3.5,2.4,7.2,4.7,10.8,7
					c7.2,4.6,14.4,9.2,21.7,13.8c7.3,4.5,14.5,9.1,21.9,13.4c1.8,1.1,3.7,2.1,5.6,3.2c1.9,1,3.8,2,5.5,2.7c2.3,0.9,4.2,2.1,6,3.4
					c0.9,0.6,1.7,1.4,2.6,2.1c0.8,0.7,1.6,1.4,2.5,2.2c6.4,5.9,12.2,12.3,17.8,18.9l0.1,0.2l0.1,0.2c4.4,10.4,8.7,20.9,13,31.3
					c4.3,10.5,8.5,21,12.6,31.5c4.1,10.5,8.1,21.1,11.9,31.8c1.9,5.3,3.7,10.7,5.4,16.1c0.8,2.7,1.7,5.4,2.4,8.2l0.5,2.1l0.4,2.1
					c0.3,1.4,0.5,2.9,0.5,4.5l-2-0.9c1.9-2.2,3.6-4.7,5.2-7.3c1.6-2.6,2.9-5.3,4.1-8c1.2-2.7,2.2-5.6,3.1-8.5c0.8-2.9,1.6-5.8,2-8.8
					c0.2-1.5,0.5-2.9,0.8-4.6c0.1-0.4,0.2-0.8,0.4-1.2l0.4-1.1c0.3-0.8,0.7-1.4,1.1-2.2c1.6-2.8,3.8-5.1,6.2-7.1
					c4.8-4,10.3-6.9,15.9-9.4c5.6-2.4,11.5-4.5,17.3-6.1c5.9-1.7,11.9-3.1,17.9-4.3c1.5-0.3,3-0.4,4.5-0.7l4.5-0.6l9-1.2L396,660.9z
					 M396.3,661.1l-18.1,2.8l-9.1,1.4l-4.6,0.7c-1.5,0.3-3.1,0.4-4.5,0.7c-6,1.2-11.9,2.8-17.7,4.5c-5.8,1.8-11.6,3.8-17.1,6.3
					c-5.5,2.5-10.9,5.4-15.4,9.3c-2.3,1.9-4.3,4.1-5.7,6.7c-0.3,0.7-0.7,1.3-0.9,2l-0.4,1c-0.1,0.3-0.3,0.7-0.3,1
					c-0.3,1.3-0.5,2.9-0.8,4.4c-0.5,3.1-1.2,6.1-2,9.1c-0.9,3-1.9,5.9-3.1,8.8c-1.2,2.9-2.6,5.6-4.2,8.3c-1.6,2.7-3.3,5.2-5.4,7.7
					l-2,2.4l0-3.2c0-1.2-0.2-2.5-0.5-3.9l-0.4-2l-0.5-2c-0.7-2.7-1.6-5.4-2.4-8.1c-1.7-5.4-3.6-10.7-5.5-16
					c-3.9-10.6-8-21.1-12.1-31.6c-4.2-10.5-8.4-21-12.7-31.4c-4.3-10.5-8.6-20.9-13-31.3l0.2,0.4c-5.5-6.5-11.3-12.9-17.5-18.6
					c-0.8-0.7-1.6-1.4-2.4-2.1c-0.8-0.6-1.6-1.3-2.5-1.9c-1.7-1.2-3.4-2.3-5.1-3c-2.2-0.9-4.1-1.9-6-2.9c-1.9-1-3.8-2.1-5.6-3.2
					c-14.9-8.7-29.3-18-43.7-27.3c-3.6-2.4-7.2-4.6-10.8-7.1l-10.7-7.2l-21.4-14.3c-7.1-4.8-14.3-9.5-21.4-14.2l-5.4-3.5
					c-1.8-1.2-3.6-2.2-5.4-3.4c-1.8-1.2-3.6-2.5-5.3-4.1c-0.8-0.8-1.6-1.6-2.3-2.6c-0.3-0.5-0.7-1-1-1.5c-0.1-0.3-0.3-0.6-0.4-0.9
					c-0.1-0.2-0.1-0.3-0.1-0.5c0-0.2-0.1-0.3-0.1-0.7l0.3,0.8c-2.6-3.3-5.3-6.6-8.2-9.6c-0.7-0.7-1.5-1.5-2.2-2.2
					c-0.4-0.4-0.8-0.7-1.2-1c-0.4-0.3-0.9-0.7-1.3-1.2c-0.2-0.3-0.4-0.5-0.6-0.9c-0.1-0.2-0.2-0.4-0.2-0.7c0-0.3,0-0.7,0.2-1.1
					c0.4-0.7,0.9-0.9,1.3-1c0.4-0.1,0.7-0.2,1-0.2c1.3-0.2,2.3-0.1,3.5,0l-0.9,2l-5-4l-0.1-0.1l0,0c-0.3-0.4-0.7-0.8-1-1.2
					c-0.3-0.5-0.6-0.9-0.8-1.5c-0.4-1.1-0.5-2.3-0.1-3.4c0.4-1.1,1-2,1.7-2.7c0.7-0.8,1.5-1.4,2.4-1.9l-0.2,1.7
					c-0.7-0.8-1.5-1.6-1.7-2.9c-0.1-0.3-0.1-0.6-0.1-1c0-0.3,0.1-0.6,0.2-0.9c0.1-0.3,0.2-0.6,0.4-0.9l0.2-0.4l0.3-0.3
					c0.7-0.9,1.6-1.5,2.4-2c0.9-0.5,1.8-0.9,2.8-1.3l0.1,0l0,0l4-0.7c1.3-0.2,2.6-0.5,4-0.6c2.7-0.3,5.3-0.7,8-0.7
					c1.3,0,2.7-0.1,4-0.1l4,0.1c1.3,0,2.7,0.1,4,0.2c1.3,0.1,2.7,0.2,4,0.4c5.3,0.6,10.6,1.8,15.7,3.4c5.1,1.6,10.1,3.6,14.8,6.4
					l-0.4-0.1c4.4-0.2,8.8,0.2,13.1,0.5c4.3,0.4,8.7,0.8,13,1.3l25.9,3.1c8.6,1,17.3,2.1,25.9,2.4c1.1,0,2.1,0,3.2-0.1
					c1.1-0.1,2.2-0.2,3.3-0.2c2.2-0.1,4.4-0.2,6.5-0.2c4.4,0,8.7,0.1,13.1,0.4l-0.4,0.7c-0.9-1.6-1.3-3.3-1.6-5
					c-0.3-1.7-0.5-3.4-0.6-5.1c-0.2-3.4-0.2-6.8,0-10.2l0.4,0.5c-1.4-0.4-2.5-1.1-3.5-1.9c-1-0.8-2-1.7-2.8-2.7
					c-1.7-1.9-3.2-4-4.6-6.2c-2.8-4.3-5.2-8.8-7.4-13.5l0.3,0.3c-3.9-2.1-7.7-4.4-11.2-7.2c-3.4-2.8-6.5-6.4-8.2-10.6
					c-1.8-4.2-2.4-8.6-3.2-13l-0.2-1.7c-0.1-0.6-0.1-1.1-0.1-1.7c0-0.6,0-1.2,0.1-1.7c0.1-0.6,0.1-1.2,0.3-1.8
					c0.3-1.2,1-2.4,2.1-3.2c0.6-0.4,1.2-0.6,1.9-0.7c0.7-0.1,1.3-0.1,2,0.1l0.1,0l0.1,0.1c8.8,5.1,17.5,10.3,26.4,15.1
					c4.4,2.4,8.9,4.8,13.4,7c2.3,1.1,4.6,2.2,6.8,3l0.8,0.3c0.2,0.1,0.3,0.1,0.5,0.2l0.6,0.3c0.2,0.1,0.4,0.2,0.5,0.3l0.5,0.3
					c0.3,0.2,0.6,0.4,0.8,0.7c1,0.9,1.9,1.9,2.8,2.8c3.4,3.9,6.3,8.1,9.2,12.3c2.9,4.2,5.7,8.5,8.4,12.7c5.5,8.6,10.8,17.2,16,26
					l-0.2-0.3l17,17l0.3,0.3l0.1,0.4l9.8,82l-0.3-0.6l44.9,49.1L396.3,661.1z"/>
			</g>
		</g>
		<g>
			<path d="M330.6,770.5c0-6.2,0.6-12.4,1.3-18.5c0.8-6.1,2-12.3,3.8-18.2c0.9-3,1.9-5.9,3.2-8.8c1.3-2.8,2.9-5.6,4.8-8.2
				c1.9-2.5,4.2-4.8,7.1-6.4c2.8-1.6,6.1-2.4,9.4-2.3l-0.5,1.9c-1.3-0.6-3-0.9-4.6-1c-1.6-0.1-3.2-0.1-4.9,0.2
				c-3.2,0.5-6.3,1.7-9.2,3.4c-2.9,1.7-5.5,3.8-7.8,6.1c-2.4,2.4-4.5,5-6.5,7.7c-4,5.4-7.3,11.4-10.2,17.5c-3,6.1-5.5,12.4-7.9,18.8
				c2-6.5,4.3-12.9,7-19.2c2.8-6.2,6-12.3,9.9-18c2-2.8,4.2-5.5,6.6-8c2.4-2.4,5.1-4.7,8.1-6.5c3-1.8,6.3-3.1,9.8-3.7
				c1.7-0.3,3.5-0.4,5.3-0.3c0.9,0.1,1.8,0.2,2.7,0.4c0.9,0.2,1.7,0.4,2.6,0.8l4.6,2.1l-5.1-0.2c-2.9-0.1-5.9,0.6-8.4,2
				c-2.6,1.4-4.8,3.5-6.6,5.9c-3.7,4.8-6,10.5-8,16.3c-1.9,5.8-3.2,11.9-4.3,17.9C331.8,758.2,331.1,764.3,330.6,770.5z"/>
		</g>
		<g>
			<path d="M447.1,730c-7.3,2.1-14.5,4.5-21.6,6.9c-7.1,2.5-14.2,5.2-21.1,8.2c-6.9,3-13.6,6.4-20,10.4c-3.2,2-6.2,4.2-9.1,6.7
				c-2.9,2.4-5.5,5.2-7.7,8.3c1.8-3.3,4.3-6.3,7-9c2.7-2.7,5.7-5.1,8.9-7.2c3.1-2.2,6.4-4.1,9.8-6c3.4-1.8,6.8-3.4,10.3-5
				c7-3,14.1-5.7,21.4-7.9C432.3,733.2,439.7,731.3,447.1,730z"/>
		</g>
		<path class="st7" d="M194.6,386.5c0,0-11,11,8,18c0,0,6-1,8-9C210.6,395.5,197.6,385.5,194.6,386.5z"/>
		<path class="st7" d="M157.6,496.5c0,0-27-8-30-10s-18-7-18-7s-42-9-49-19"/>
		<path class="st7" d="M152.6,515.5c0,0-35-12-41-16s-17-8-17-8s-10-4-12-6s-17-11-17-11"/>
		<path class="st7" d="M144.6,526.5c0,0-26-11-30-14s-18-8-18-8s-13-9-19-12s-8.5-6.1-8.5-6.1"/>
	</g>
</g>
<linearGradient id="SVGID_1_" gradientUnits="userSpaceOnUse" x1="354.9899" y1="845.7801" x2="356.4873" y2="625.6693">
	<stop  offset="0" style="stop-color:#FFFFFF"/>
	<stop  offset="1" style="stop-color:#111111"/>
</linearGradient>
<rect x="18.1" y="759" class="st18" width="674" height="134"/>
</svg>
